SplineFontDB: 3.0
FontName: NimbusSanL-BoldCond
FullName: Nimbus Sans L Bold Condensed
FamilyName: Nimbus Sans L
Weight: Bold
Copyright: Copyright (URW)++,Copyright 2006 by (URW)++ Design & Development
Version: 1.10
ItalicAngle: 0
UnderlinePosition: -109
UnderlineWidth: 54
Ascent: 800
Descent: 200
LayerCount: 2
Layer: 0 0 "Back"  1
Layer: 1 0 "Fore"  0
UniqueID: 5082801
OS2Version: 0
OS2_WeightWidthSlopeOnly: 0
OS2_UseTypoMetrics: 0
CreationTime: 1464335511
ModificationTime: 1464335511
OS2TypoAscent: 0
OS2TypoAOffset: 1
OS2TypoDescent: 0
OS2TypoDOffset: 1
OS2TypoLinegap: 0
OS2WinAscent: 0
OS2WinAOffset: 1
OS2WinDescent: 0
OS2WinDOffset: 1
HheadAscent: 0
HheadAOffset: 1
HheadDescent: 0
HheadDOffset: 1
OS2Vendor: 'PfEd'
DEI: 91125
Encoding: UnicodeBmp
UnicodeInterp: none
NameList: Adobe Glyph List
DisplaySize: -24
AntiAlias: 1
FitToEm: 1
BeginPrivate: 7
BlueValues 31 [-23 0 540 560 729 749 701 724]
BlueScale 8 0.039625
StdHW 5 [118]
StdVW 5 [114]
StemSnapH 9 [118 127]
StemSnapV 9 [114 124]
ForceBold 5 false
EndPrivate
BeginChars: 65537 243

StartChar: A
Encoding: 65 65 1
Width: 592
Flags: MW
HStem: 0 20 147 125<221 377 221 410 187 377> 537 20<299 299> 709 20<233 370 370 370>
LayerCount: 2
Fore
SplineSet
410 147 m 1
 187 147 l 1
 146 0 l 1
 21 0 l 1
 233 729 l 1
 370 729 l 1
 576 0 l 1
 450 0 l 1
 410 147 l 1
377 272 m 1
 299 557 l 1
 221 272 l 1
 377 272 l 1
EndSplineSet
EndChar

StartChar: B
Encoding: 66 66 2
Width: 592
Flags: W
HStem: 0 125<67 336 190 336 190 336> 314 125<190 324 190 324 324 336> 604 125<190 190 190 324>
VStem: 67 123<125 314 439 604> 411 118<506.5 548.5> 428 118<188.5 246 181 250>
LayerCount: 2
Fore
SplineSet
67 0 m 1xf4
 67 729 l 1
 333 729 l 2
 398 729 441 713 475 676 c 0
 509 639 529 586 529 537 c 0xf8
 529 476 505 432 447 387 c 1
 514 339 546 282 546 210 c 0
 546 152 523 92 486 53 c 0
 452 17 405 0 336 0 c 2
 67 0 l 1xf4
190 604 m 1
 190 439 l 1
 324 439 l 2
 380 439 411 468 411 522 c 0
 411 575 380 604 324 604 c 2
 190 604 l 1
190 314 m 1
 190 125 l 1
 336 125 l 2
 396 125 428 158 428 219 c 0xf4
 428 281 396 314 336 314 c 2
 190 314 l 1
EndSplineSet
EndChar

StartChar: C
Encoding: 67 67 3
Width: 592
Flags: MW
HStem: -23 126<262 348.5 262 381.5> 613 128<265.5 334.5>
VStem: 36 123<276 436.5 276 476.5>
LayerCount: 2
Fore
SplineSet
559 482 m 1
 442 482 l 1
 434 523 427 542 413 563 c 0
 390 595 355 613 314 613 c 0
 217 613 159 517 159 356 c 0
 159 196 214 103 310 103 c 0
 387 103 434 155 442 249 c 1
 562 249 l 1
 554 82 456 -23 307 -23 c 0
 140 -23 36 123 36 358 c 0
 36 595 141 741 310 741 c 0
 402 741 479 697 523 619 c 0
 546 579 556 542 559 482 c 1
EndSplineSet
EndChar

StartChar: D
Encoding: 68 68 4
Width: 592
Flags: MW
HStem: 0 125<63 296 186 296 296 297> 604 125<186 296 186 186>
VStem: 63 123<125 125 125 604> 435 123<307.5 422 307.5 444.5>
LayerCount: 2
Fore
SplineSet
63 0 m 1
 63 729 l 1
 297 729 l 2
 389 729 446 703 486 645 c 1
 533 574 558 479 558 365 c 0
 558 250 533 155 486 85 c 0
 446 26 388 0 297 0 c 2
 63 0 l 1
186 125 m 1
 296 125 l 2
 389 125 435 204 435 364 c 0
 435 525 390 604 296 604 c 2
 186 604 l 1
 186 125 l 1
EndSplineSet
EndChar

StartChar: E
Encoding: 69 69 5
Width: 547
Flags: MW
HStem: 0 125<188 512 188 512 65 512> 314 125<188 474 188 474> 604 125<188 497 188 188>
VStem: 65 123<125 314 439 604>
LayerCount: 2
Fore
SplineSet
188 314 m 1
 188 125 l 1
 512 125 l 1
 512 0 l 1
 65 0 l 1
 65 729 l 1
 497 729 l 1
 497 604 l 1
 188 604 l 1
 188 439 l 1
 474 439 l 1
 474 314 l 1
 188 314 l 1
EndSplineSet
EndChar

StartChar: F
Encoding: 70 70 6
Width: 501
Flags: MW
HStem: 0 20 314 125<184 446 184 446> 604 125<184 481 184 184>
VStem: 61 123<0 314 439 604>
LayerCount: 2
Fore
SplineSet
184 314 m 1
 184 0 l 1
 61 0 l 1
 61 729 l 1
 481 729 l 1
 481 604 l 1
 184 604 l 1
 184 439 l 1
 446 439 l 1
 446 314 l 1
 184 314 l 1
EndSplineSet
EndChar

StartChar: G
Encoding: 71 71 7
Width: 638
Flags: MW
HStem: -23 128<302 351.5 302 354> 267 125<343 479 343 582> 613 128<271.5 361>
VStem: 34 123<323 439.5 323 473>
LayerCount: 2
Fore
SplineSet
582 392 m 1
 582 -2 l 1
 509 -2 l 1
 494 94 l 1
 447 11 394 -23 314 -23 c 0
 151 -23 34 137 34 359 c 0
 34 587 151 741 324 741 c 0
 468 741 567 646 582 496 c 1
 467 496 l 1
 444 575 398 613 324 613 c 0
 219 613 157 519 157 360 c 0
 157 286 171 231 201 183 c 0
 234 132 277 105 327 105 c 0
 376 105 423 133 452 179 c 0
 469 205 476 228 479 267 c 1
 343 267 l 1
 343 392 l 1
 582 392 l 1
EndSplineSet
EndChar

StartChar: H
Encoding: 72 72 8
Width: 592
Flags: MW
HStem: 0 20 331 125<179 416 179 416> 709 20<56 179 179 179 416 539 539 539>
VStem: 56 123<0 331 456 729> 416 123<0 331 331 331 456 729 0 729>
LayerCount: 2
Fore
SplineSet
416 331 m 1
 179 331 l 1
 179 0 l 1
 56 0 l 1
 56 729 l 1
 179 729 l 1
 179 456 l 1
 416 456 l 1
 416 729 l 1
 539 729 l 1
 539 0 l 1
 416 0 l 1
 416 331 l 1
EndSplineSet
EndChar

StartChar: I
Encoding: 73 73 9
Width: 228
Flags: MW
HStem: 0 20 709 20<52 175 175 175>
VStem: 52 123<0 729 0 729>
LayerCount: 2
Fore
SplineSet
175 729 m 1
 175 0 l 1
 52 0 l 1
 52 729 l 1
 175 729 l 1
EndSplineSet
EndChar

StartChar: J
Encoding: 74 74 10
Width: 456
Flags: MW
HStem: -23 128<185.5 231 185.5 268.5> 709 20<276 399 399 399>
VStem: 20 123<198 200 200 270 166 270> 276 123<190 729>
LayerCount: 2
Fore
SplineSet
276 729 m 1
 399 729 l 1
 399 190 l 2
 399 54 330 -23 207 -23 c 0
 150 -23 104 -3 70 35 c 0
 34 75 20 122 20 198 c 2
 20 270 l 1
 143 270 l 1
 143 200 l 2
 143 132 162 105 209 105 c 0
 253 105 276 135 276 190 c 2
 276 729 l 1
EndSplineSet
EndChar

StartChar: K
Encoding: 75 75 11
Width: 592
Flags: MW
HStem: 0 20 709 20<61 184 184 184 417 563 563 563>
VStem: 61 123<0 244 409 729>
LayerCount: 2
Fore
SplineSet
184 244 m 1
 184 0 l 1
 61 0 l 1
 61 729 l 1
 184 729 l 1
 184 409 l 1
 417 729 l 1
 563 729 l 1
 324 415 l 1
 588 0 l 1
 441 0 l 1
 245 322 l 1
 184 244 l 1
EndSplineSet
EndChar

StartChar: L
Encoding: 76 76 12
Width: 501
Flags: MW
HStem: 0 125<189 475 189 475 66 475> 709 20<66 189 189 189>
VStem: 66 123<125 729 125 729 125 729>
LayerCount: 2
Fore
SplineSet
189 729 m 1
 189 125 l 1
 475 125 l 1
 475 0 l 1
 66 0 l 1
 66 729 l 1
 189 729 l 1
EndSplineSet
EndChar

StartChar: M
Encoding: 77 77 13
Width: 683
Flags: MW
HStem: 0 20 709 20<54 238 238 238 451 636 636 636>
VStem: 54 123<0 568 0 729> 513 123<0 568 568 568>
LayerCount: 2
Fore
SplineSet
177 568 m 1
 177 0 l 1
 54 0 l 1
 54 729 l 1
 238 729 l 1
 346 149 l 1
 451 729 l 1
 636 729 l 1
 636 0 l 1
 513 0 l 1
 513 568 l 1
 408 0 l 1
 284 0 l 1
 177 568 l 1
EndSplineSet
EndChar

StartChar: N
Encoding: 78 78 14
Width: 592
Flags: MW
HStem: 0 20 709 20<56 182 182 182 419 542 542 542>
VStem: 56 123<0 504 0 729> 419 123<0 729 233 729 0 729>
LayerCount: 2
Fore
SplineSet
419 0 m 1
 179 504 l 1
 179 0 l 1
 56 0 l 1
 56 729 l 1
 182 729 l 1
 419 233 l 1
 419 729 l 1
 542 729 l 1
 542 0 l 1
 419 0 l 1
EndSplineSet
EndChar

StartChar: O
Encoding: 79 79 15
Width: 638
Flags: MW
HStem: -23 128<278.5 363.5> 613 128<278 363.5 278 371>
VStem: 33 123<304.5 413.5> 486 123<303 410.5 303 433.5>
LayerCount: 2
Fore
SplineSet
320 741 m 0
 407 741 476 707 525 640 c 0
 580 566 609 467 609 354 c 0
 609 252 578 150 525 78 c 0
 477 12 406 -23 321 -23 c 0
 236 -23 166 12 117 78 c 0
 62 151 33 250 33 359 c 0
 33 468 63 570 117 640 c 1
 167 707 236 741 320 741 c 0
321 613 m 0
 221 613 156 513 156 359 c 0
 156 205 221 105 321 105 c 0
 419 105 486 206 486 355 c 0
 486 512 421 613 321 613 c 0
EndSplineSet
EndChar

StartChar: P
Encoding: 80 80 16
Width: 547
Flags: MW
HStem: 0 20 260 125<185 300 185 300 300 332.5 185 338> 604 125<185 300 185 185>
VStem: 62 123<0 260 385 604> 396 123<457 531.5>
LayerCount: 2
Fore
SplineSet
185 260 m 1
 185 0 l 1
 62 0 l 1
 62 729 l 1
 326 729 l 2
 451 729 519 649 519 501 c 0
 519 356 447 260 338 260 c 2
 185 260 l 1
185 385 m 1
 300 385 l 2
 365 385 396 420 396 494 c 0
 396 569 365 604 300 604 c 2
 185 604 l 1
 185 385 l 1
EndSplineSet
EndChar

StartChar: Q
Encoding: 81 81 17
Width: 638
Flags: MW
HStem: -23 128<280.5 335 272.5 354> 613 128<280 365.5 280 373>
VStem: 35 123<304.5 413.5> 488 123<328.5 414>
LayerCount: 2
Fore
SplineSet
545 103 m 1
 611 27 l 1
 548 -54 l 1
 478 28 l 1
 429 -8 385 -23 323 -23 c 0
 238 -23 168 11 119 78 c 1
 64 151 35 250 35 359 c 0
 35 468 64 567 119 640 c 1
 168 707 237 741 323 741 c 0
 408 741 478 707 527 640 c 0
 581 567 611 467 611 361 c 0
 611 264 585 164 545 103 c 1
394 278 m 1
 461 200 l 1
 478 242 488 299 488 358 c 0
 488 512 423 613 323 613 c 0
 223 613 158 513 158 359 c 0
 158 206 223 105 322 105 c 0
 348 105 375 112 394 124 c 1
 331 197 l 1
 394 278 l 1
EndSplineSet
EndChar

StartChar: R
Encoding: 82 82 18
Width: 592
Flags: MW
HStem: 0 20 289 125<189 337 189 330> 604 125<189 337 189 189>
VStem: 66 123<0 289 414 604> 425 123<494 527.5>
LayerCount: 2
Fore
SplineSet
189 289 m 1
 189 0 l 1
 66 0 l 1
 66 729 l 1
 386 729 l 2
 438 729 477 712 503 679 c 0
 532 641 548 589 548 532 c 0
 548 444 514 384 446 352 c 1
 523 312 526 302 529 87 c 0
 529 55 536 40 555 27 c 1
 555 0 l 1
 423 0 l 1
 408 35 405 56 405 122 c 0
 405 133 405 153 406 173 c 1
 406 204 l 2
 406 263 383 289 330 289 c 2
 189 289 l 1
189 414 m 1
 337 414 l 2
 373 414 389 419 403 433 c 0
 417 448 425 477 425 511 c 0
 425 544 417 569 402 585 c 0
 388 600 373 604 337 604 c 2
 189 604 l 1
 189 414 l 1
EndSplineSet
EndChar

StartChar: S
Encoding: 83 83 19
Width: 547
Flags: MW
HStem: -23 120<239 317 239 350.5> 621 120<225.5 296>
VStem: 36 117<504.5 558 504.5 587.5> 401 118<165 224.5>
LayerCount: 2
Fore
SplineSet
498 507 m 1
 383 507 l 1
 379 581 335 621 257 621 c 0
 194 621 153 585 153 531 c 0
 153 478 179 457 267 436 c 2
 361 414 l 2
 471 389 519 328 519 214 c 0
 519 65 427 -23 274 -23 c 0
 122 -23 34 62 26 218 c 1
 146 218 l 1
 150 140 198 97 280 97 c 0
 354 97 401 135 401 195 c 0
 401 254 371 282 288 301 c 2
 205 321 l 1
 84 349 36 404 36 517 c 0
 36 658 120 741 262 741 c 0
 414 741 497 658 498 507 c 1
EndSplineSet
EndChar

StartChar: T
Encoding: 84 84 20
Width: 501
Flags: MW
HStem: 0 20 604 125<11 193 11 490 316 490 316 316>
VStem: 193 123<0 604 0 604>
LayerCount: 2
Fore
SplineSet
316 604 m 1
 316 0 l 1
 193 0 l 1
 193 604 l 1
 11 604 l 1
 11 729 l 1
 490 729 l 1
 490 604 l 1
 316 604 l 1
EndSplineSet
EndChar

StartChar: U
Encoding: 85 85 21
Width: 592
Flags: MW
HStem: -23 128<263 335> 709 20<62 185 185 185 413 536 536 536>
VStem: 62 123<235 729> 413 123<235 729>
LayerCount: 2
Fore
SplineSet
413 729 m 1
 536 729 l 1
 536 235 l 2
 536 153 518 96 478 51 c 0
 435 4 371 -23 299 -23 c 0
 227 -23 163 4 120 51 c 0
 80 96 62 153 62 235 c 2
 62 729 l 1
 185 729 l 1
 185 235 l 2
 185 147 222 105 299 105 c 0
 376 105 413 147 413 235 c 2
 413 729 l 1
EndSplineSet
EndChar

StartChar: V
Encoding: 86 86 22
Width: 547
Flags: MW
HStem: 0 20 709 20<20 143 143 143 407 531 531 531>
LayerCount: 2
Fore
SplineSet
326 0 m 1
 222 0 l 1
 20 729 l 1
 143 729 l 1
 276 180 l 1
 407 729 l 1
 531 729 l 1
 326 0 l 1
EndSplineSet
EndChar

StartChar: W
Encoding: 87 87 23
Width: 774
Flags: MW
HStem: 0 20 709 20<11 141 141 141 326 448 448 448 634 765 765 765>
LayerCount: 2
Fore
SplineSet
599 0 m 1
 488 0 l 1
 388 569 l 1
 291 0 l 1
 180 0 l 1
 11 729 l 1
 141 729 l 1
 234 183 l 1
 326 729 l 1
 448 729 l 1
 545 182 l 1
 634 729 l 1
 765 729 l 1
 599 0 l 1
EndSplineSet
EndChar

StartChar: X
Encoding: 88 88 24
Width: 547
Flags: MW
HStem: 0 20 709 20<24 170 170 170 385 528 528 528>
LayerCount: 2
Fore
SplineSet
343 372 m 1
 535 0 l 1
 389 0 l 1
 274 253 l 1
 160 0 l 1
 18 0 l 1
 207 367 l 1
 24 729 l 1
 170 729 l 1
 276 489 l 1
 385 729 l 1
 528 729 l 1
 343 372 l 1
EndSplineSet
EndChar

StartChar: Y
Encoding: 89 89 25
Width: 547
Flags: MW
HStem: 0 20 709 20<22 160 160 160 396 533 533 533>
VStem: 221 123<0 270 0 270>
LayerCount: 2
Fore
SplineSet
344 270 m 1
 344 0 l 1
 221 0 l 1
 221 270 l 1
 22 729 l 1
 160 729 l 1
 282 407 l 1
 396 729 l 1
 533 729 l 1
 344 270 l 1
EndSplineSet
EndChar

StartChar: Z
Encoding: 90 90 26
Width: 501
Flags: MW
HStem: 0 125<169 474 25 25> 604 125<25 330 25 474 25 474>
LayerCount: 2
Fore
SplineSet
474 729 m 1
 474 604 l 1
 169 125 l 1
 474 125 l 1
 474 0 l 1
 25 0 l 1
 25 125 l 1
 330 604 l 1
 25 604 l 1
 25 729 l 1
 474 729 l 1
EndSplineSet
EndChar

StartChar: AE
Encoding: 198 198 27
Width: 820
Flags: MW
HStem: 0 125<353 792 476 792 476 792> 152 125<205 353 205 353 170 353> 314 125<476 754 476 754> 604 125<298 353 298 298 476 776 476 476>
VStem: 353 123<125 152 152 152 277 314 439 604>
LayerCount: 2
Fore
SplineSet
353 152 m 1
 170 152 l 1
 127 0 l 1
 1 0 l 1
 217 729 l 1
 776 729 l 1
 776 604 l 1
 476 604 l 1
 476 439 l 1
 754 439 l 1
 754 314 l 1
 476 314 l 1
 476 125 l 1
 792 125 l 1
 792 0 l 1
 353 0 l 1
 353 152 l 1
353 277 m 1
 353 604 l 1
 298 604 l 1
 205 277 l 1
 353 277 l 1
EndSplineSet
EndChar

StartChar: OE
Encoding: 338 338 28
Width: 820
Flags: W
HStem: -23 128<248 295> 0 125<512 795 512 795 393 795> 314 125<512 757 512 757> 604 125<512 780 512 512> 613 128<248 296.5 197 314>
VStem: 23 123<282.5 435.5 282.5 472> 389 123<178 314 439 540 540 540>
LayerCount: 2
Fore
SplineSet
512 314 m 1x36
 512 125 l 1
 795 125 l 1
 795 0 l 1
 393 0 l 1x66
 393 59 l 1
 359 1 323 -23 267 -23 c 0
 124 -23 23 135 23 359 c 0
 23 585 124 741 270 741 c 0x8e
 323 741 360 722 393 677 c 1
 393 729 l 1
 780 729 l 1
 780 604 l 1
 512 604 l 1
 512 439 l 1
 757 439 l 1
 757 314 l 1
 512 314 l 1x36
389 178 m 1x8e
 389 540 l 1
 365 591 336 613 292 613 c 0
 204 613 146 512 146 359 c 0
 146 206 204 105 292 105 c 0
 336 105 365 127 389 178 c 1x8e
EndSplineSet
EndChar

StartChar: Oslash
Encoding: 216 216 29
Width: 638
Flags: W
HStem: -23 128<296 360> 613 128<275 341> 729 20<576 576>
VStem: 29 123<328 414> 483 123<303.5 384>
LayerCount: 2
Fore
SplineSet
135 52 m 1xb8
 67 -39 l 1
 25 7 l 1
 96 102 l 1
 50 179 29 259 29 359 c 0
 29 469 58 567 113 640 c 1
 162 707 232 741 318 741 c 0xd8
 395 741 455 715 508 657 c 1
 576 749 l 1
 619 704 l 1
 546 605 l 1
 584 540 606 450 606 357 c 0
 606 250 576 151 522 77 c 0
 473 11 403 -23 317 -23 c 0
 243 -23 183 2 135 52 c 1xb8
465 497 m 1
 210 153 l 1
 235 123 275 105 317 105 c 0
 418 105 483 206 483 361 c 0
 483 407 476 457 465 497 c 1
175 209 m 1
 432 556 l 1
 402 594 364 613 318 613 c 0
 216 613 152 513 152 356 c 0
 152 300 160 251 175 209 c 1
EndSplineSet
EndChar

StartChar: Adieresis
Encoding: 196 196 30
Width: 592
Flags: MW
HStem: 0 20 147 125<221 377 221 410 187 377> 537 20<299 299> 709 20<233 370 370 370> 800 122<177 267 177 267 177 330 330 420>
VStem: 177 90<800 922 800 922> 330 90<800 922 800 922>
LayerCount: 2
Fore
SplineSet
410 147 m 1
 187 147 l 1
 146 0 l 1
 21 0 l 1
 233 729 l 1
 370 729 l 1
 576 0 l 1
 450 0 l 1
 410 147 l 1
377 272 m 1
 299 557 l 1
 221 272 l 1
 377 272 l 1
267 922 m 1
 267 800 l 1
 177 800 l 1
 177 922 l 1
 267 922 l 1
420 922 m 1
 420 800 l 1
 330 800 l 1
 330 922 l 1
 420 922 l 1
EndSplineSet
EndChar

StartChar: Aacute
Encoding: 193 193 31
Width: 592
Flags: MW
HStem: 0 20 147 125<221 377 221 410 187 377> 537 20<299 299> 709 20<233 370 370 370>
LayerCount: 2
Fore
SplineSet
410 147 m 1
 187 147 l 1
 146 0 l 1
 21 0 l 1
 233 729 l 1
 370 729 l 1
 576 0 l 1
 450 0 l 1
 410 147 l 1
377 272 m 1
 299 557 l 1
 221 272 l 1
 377 272 l 1
418 936 m 1
 314 786 l 1
 257 786 l 1
 314 936 l 1
 418 936 l 1
EndSplineSet
EndChar

StartChar: Agrave
Encoding: 192 192 32
Width: 592
Flags: MW
HStem: 0 20 147 125<221 377 221 410 187 377> 537 20<299 299> 709 20<233 370 370 370>
LayerCount: 2
Fore
SplineSet
410 147 m 1
 187 147 l 1
 146 0 l 1
 21 0 l 1
 233 729 l 1
 370 729 l 1
 576 0 l 1
 450 0 l 1
 410 147 l 1
377 272 m 1
 299 557 l 1
 221 272 l 1
 377 272 l 1
181 936 m 1
 284 936 l 1
 342 786 l 1
 284 786 l 1
 181 936 l 1
EndSplineSet
EndChar

StartChar: Acircumflex
Encoding: 194 194 33
Width: 592
Flags: MW
HStem: 0 20 147 125<221 377 221 410 187 377> 537 20<299 299> 709 20<233 370 370 370>
LayerCount: 2
Fore
SplineSet
410 147 m 1
 187 147 l 1
 146 0 l 1
 21 0 l 1
 233 729 l 1
 370 729 l 1
 576 0 l 1
 450 0 l 1
 410 147 l 1
377 272 m 1
 299 557 l 1
 221 272 l 1
 377 272 l 1
256 936 m 1
 344 936 l 1
 429 786 l 1
 365 786 l 1
 298 886 l 1
 231 786 l 1
 168 786 l 1
 256 936 l 1
EndSplineSet
EndChar

StartChar: Atilde
Encoding: 195 195 34
Width: 592
Flags: W
HStem: 0 20 147 125<221 377 221 410 187 377> 537 20<299 299> 709 20<233 370 370 370> 801 79<363 375.5 363 394.5> 845 79<232 242.5 212 246.5>
LayerCount: 2
Fore
SplineSet
410 147 m 1xf8
 187 147 l 1
 146 0 l 1
 21 0 l 1
 233 729 l 1
 370 729 l 1
 576 0 l 1
 450 0 l 1
 410 147 l 1xf8
377 272 m 1
 299 557 l 1
 221 272 l 1
 377 272 l 1
397 928 m 1
 448 928 l 1
 444 842 419 801 370 801 c 0x08
 356 801 344 804 325 813 c 2
 267 839 l 2
 256 844 251 845 242 845 c 0
 222 845 213 833 209 800 c 1
 158 800 l 1
 161 878 189 924 235 924 c 0x04
 250 924 254 923 280 911 c 2
 339 886 l 2
 347 883 359 880 367 880 c 0
 384 880 393 895 397 928 c 1
EndSplineSet
EndChar

StartChar: Aring
Encoding: 197 197 35
Width: 592
Flags: MW
HStem: 0 20 147 125<221 377 221 410 187 377> 537 20<299 299> 709 20<233 370 370 370> 769 48<290 308 290 319> 901 48<289.5 309>
VStem: 225 39<848.5 871.5 848.5 885> 333 39<848 871>
LayerCount: 2
Fore
SplineSet
410 147 m 1
 187 147 l 1
 146 0 l 1
 21 0 l 1
 233 729 l 1
 370 729 l 1
 576 0 l 1
 450 0 l 1
 410 147 l 1
377 272 m 1
 299 557 l 1
 221 272 l 1
 377 272 l 1
299 949 m 0
 341 949 372 911 372 858 c 0
 372 809 339 769 299 769 c 0
 258 769 225 809 225 859 c 0
 225 911 257 949 299 949 c 0
299 901 m 0
 280 901 264 883 264 860 c 0
 264 837 281 817 299 817 c 0
 317 817 333 837 333 859 c 0
 333 883 319 901 299 901 c 0
EndSplineSet
EndChar

StartChar: Ccedilla
Encoding: 199 199 36
Width: 592
Flags: MW
HStem: -220 50<267.5 287.5 262 321> -94 197<271 292> 613 128<265.5 334.5>
VStem: 36 123<296.5 436.5 276 476.5> 321 71<-141 -118.5>
LayerCount: 2
Fore
SplineSet
310 -23 m 1
 295 -63 l 1
 309 -58 312 -57 329 -57 c 0
 369 -57 392 -83 392 -127 c 0
 392 -187 355 -220 287 -220 c 0
 248 -220 225 -214 173 -192 c 1
 189 -140 l 1
 232 -164 250 -170 274 -170 c 0
 301 -170 321 -153 321 -129 c 0
 321 -108 305 -94 279 -94 c 0
 263 -94 255 -96 239 -107 c 1
 274 -23 l 1
 195 -6 161 13 120 65 c 0
 65 134 36 235 36 358 c 0
 36 595 141 741 310 741 c 0
 402 741 479 697 523 619 c 0
 546 579 556 542 559 482 c 1
 442 482 l 1
 434 523 427 542 413 563 c 0
 390 595 355 613 314 613 c 0
 217 613 159 517 159 356 c 0
 159 196 214 103 310 103 c 0
 387 103 434 155 442 249 c 1
 562 249 l 1
 555 84 460 -19 310 -23 c 1
EndSplineSet
EndChar

StartChar: Eth
Encoding: 208 208 37
Width: 592
Flags: MW
HStem: 0 125<186 297 186 297 63 297> 339 80<0 63 0 63 186 309> 604 125<186 297 186 186>
VStem: 63 123<125 339 125 339 125 339 419 604> 440 118<323.5 405>
LayerCount: 2
Fore
SplineSet
63 339 m 1
 0 339 l 1
 0 419 l 1
 63 419 l 1
 63 729 l 1
 297 729 l 2
 391 729 447 704 486 645 c 0
 532 574 558 474 558 365 c 0
 558 255 532 155 486 85 c 0
 447 25 390 0 297 0 c 2
 63 0 l 1
 63 339 l 1
186 339 m 1
 186 125 l 1
 297 125 l 2
 350 125 381 141 403 179 c 0
 428 224 440 283 440 364 c 0
 440 446 428 505 403 550 c 0
 381 588 350 604 297 604 c 2
 186 604 l 1
 186 419 l 1
 309 419 l 1
 309 339 l 1
 186 339 l 1
EndSplineSet
EndChar

StartChar: Edieresis
Encoding: 203 203 38
Width: 547
Flags: W
HStem: 0 125<188 512 188 512 65 512> 314 125<188 474 188 474> 604 125<188 497 188 188> 800 122<162 252 162 252 162 314 314 404>
VStem: 65 123<125 314 439 604> 162 90<800 922 800 922> 314 90<800 922 800 922>
LayerCount: 2
Fore
SplineSet
188 314 m 1xf8
 188 125 l 1
 512 125 l 1
 512 0 l 1
 65 0 l 1
 65 729 l 1
 497 729 l 1
 497 604 l 1
 188 604 l 1
 188 439 l 1
 474 439 l 1
 474 314 l 1
 188 314 l 1xf8
252 922 m 1xf6
 252 800 l 1
 162 800 l 1
 162 922 l 1
 252 922 l 1xf6
404 922 m 1
 404 800 l 1
 314 800 l 1
 314 922 l 1
 404 922 l 1
EndSplineSet
EndChar

StartChar: Eacute
Encoding: 201 201 39
Width: 547
Flags: MW
HStem: 0 125<188 512 188 512 65 512> 314 125<188 474 188 474> 604 125<188 497 188 188>
VStem: 65 123<125 314 439 604>
LayerCount: 2
Fore
SplineSet
188 314 m 1
 188 125 l 1
 512 125 l 1
 512 0 l 1
 65 0 l 1
 65 729 l 1
 497 729 l 1
 497 604 l 1
 188 604 l 1
 188 439 l 1
 474 439 l 1
 474 314 l 1
 188 314 l 1
394 936 m 1
 291 786 l 1
 233 786 l 1
 291 936 l 1
 394 936 l 1
EndSplineSet
EndChar

StartChar: Egrave
Encoding: 200 200 40
Width: 547
Flags: MW
HStem: 0 125<188 512 188 512 65 512> 314 125<188 474 188 474> 604 125<188 497 188 188>
VStem: 65 123<125 314 439 604>
LayerCount: 2
Fore
SplineSet
188 314 m 1
 188 125 l 1
 512 125 l 1
 512 0 l 1
 65 0 l 1
 65 729 l 1
 497 729 l 1
 497 604 l 1
 188 604 l 1
 188 439 l 1
 474 439 l 1
 474 314 l 1
 188 314 l 1
171 936 m 1
 274 936 l 1
 332 786 l 1
 274 786 l 1
 171 936 l 1
EndSplineSet
EndChar

StartChar: Ecircumflex
Encoding: 202 202 41
Width: 547
Flags: MW
HStem: 0 125<188 512 188 512 65 512> 314 125<188 474 188 474> 604 125<188 497 188 188>
VStem: 65 123<125 314 439 604>
LayerCount: 2
Fore
SplineSet
188 314 m 1
 188 125 l 1
 512 125 l 1
 512 0 l 1
 65 0 l 1
 65 729 l 1
 497 729 l 1
 497 604 l 1
 188 604 l 1
 188 439 l 1
 474 439 l 1
 474 314 l 1
 188 314 l 1
241 936 m 1
 329 936 l 1
 413 786 l 1
 349 786 l 1
 282 886 l 1
 215 786 l 1
 153 786 l 1
 241 936 l 1
EndSplineSet
EndChar

StartChar: Idieresis
Encoding: 207 207 42
Width: 228
Flags: W
HStem: 0 20 709 20<52 175 175 175> 800 122<-7 83 -7 83 -7 146 146 236>
VStem: -7 90<800 922 800 922> 52 123<0 729 0 729> 146 90<800 922 800 922>
LayerCount: 2
Fore
SplineSet
175 729 m 1xe8
 175 0 l 1
 52 0 l 1
 52 729 l 1
 175 729 l 1xe8
83 922 m 1xf4
 83 800 l 1
 -7 800 l 1
 -7 922 l 1
 83 922 l 1xf4
236 922 m 1
 236 800 l 1
 146 800 l 1
 146 922 l 1
 236 922 l 1
EndSplineSet
EndChar

StartChar: Iacute
Encoding: 205 205 43
Width: 228
Flags: MW
HStem: 0 20 709 20<52 175 175 175>
VStem: 52 123<0 729 0 729>
LayerCount: 2
Fore
SplineSet
175 729 m 1
 175 0 l 1
 52 0 l 1
 52 729 l 1
 175 729 l 1
238 936 m 1
 135 786 l 1
 77 786 l 1
 135 936 l 1
 238 936 l 1
EndSplineSet
EndChar

StartChar: Igrave
Encoding: 204 204 44
Width: 228
Flags: MW
HStem: 0 20 709 20<52 175 175 175>
VStem: 52 123<0 729 0 729>
LayerCount: 2
Fore
SplineSet
175 729 m 1
 175 0 l 1
 52 0 l 1
 52 729 l 1
 175 729 l 1
-8 936 m 1
 95 936 l 1
 153 786 l 1
 95 786 l 1
 -8 936 l 1
EndSplineSet
EndChar

StartChar: Icircumflex
Encoding: 206 206 45
Width: 228
Flags: MW
HStem: 0 20 709 20<51 174 174 174>
VStem: 51 123<0 729 0 729>
LayerCount: 2
Fore
SplineSet
174 729 m 1
 174 0 l 1
 51 0 l 1
 51 729 l 1
 174 729 l 1
72 936 m 1
 160 936 l 1
 245 786 l 1
 181 786 l 1
 114 886 l 1
 47 786 l 1
 -16 786 l 1
 72 936 l 1
EndSplineSet
EndChar

StartChar: Lslash
Encoding: 321 321 46
Width: 501
Flags: MW
HStem: 0 125<189 490 189 490 66 490> 709 20<66 189 189 189>
VStem: 66 123<125 257 257 257 423 729>
LayerCount: 2
Fore
SplineSet
189 423 m 1
 324 535 l 1
 324 447 l 1
 189 334 l 1
 189 125 l 1
 490 125 l 1
 490 0 l 1
 66 0 l 1
 66 257 l 1
 0 201 l 1
 0 290 l 1
 66 346 l 1
 66 729 l 1
 189 729 l 1
 189 423 l 1
EndSplineSet
EndChar

StartChar: Ntilde
Encoding: 209 209 47
Width: 592
Flags: W
HStem: 0 20 709 20<56 182 182 182 419 542 542 542> 801 79<365 377.5 365 396.5> 845 79<234 244.5 214 248.5>
VStem: 56 123<0 504 0 729> 419 123<0 729 233 729 0 729>
LayerCount: 2
Fore
SplineSet
419 0 m 1xec
 179 504 l 1
 179 0 l 1
 56 0 l 1
 56 729 l 1
 182 729 l 1
 419 233 l 1
 419 729 l 1
 542 729 l 1
 542 0 l 1
 419 0 l 1xec
398 928 m 1
 450 928 l 1
 446 842 421 801 372 801 c 0x2c
 358 801 346 804 327 813 c 2
 269 839 l 2
 258 844 253 845 244 845 c 0
 224 845 215 832 211 800 c 1
 160 800 l 1
 162 878 191 924 237 924 c 0x1c
 252 924 256 923 282 911 c 2
 341 886 l 2
 349 883 361 880 369 880 c 0
 386 880 395 895 398 928 c 1
EndSplineSet
EndChar

StartChar: Odieresis
Encoding: 214 214 48
Width: 638
Flags: MW
HStem: -23 128<278.5 363.5> 613 128<278 363.5 278 371> 800 122<199 289 199 289 199 352 352 442>
VStem: 33 123<304.5 413.5> 199 90<800 922 800 922> 352 90<800 922 800 922> 486 123<303 410.5 303 433.5>
LayerCount: 2
Fore
SplineSet
320 741 m 0
 407 741 476 707 525 640 c 0
 580 566 609 467 609 354 c 0
 609 252 578 150 525 78 c 0
 477 12 406 -23 321 -23 c 0
 236 -23 166 12 117 78 c 0
 62 151 33 250 33 359 c 0
 33 468 63 570 117 640 c 1
 167 707 236 741 320 741 c 0
321 613 m 0
 221 613 156 513 156 359 c 0
 156 205 221 105 321 105 c 0
 419 105 486 206 486 355 c 0
 486 512 421 613 321 613 c 0
289 922 m 1
 289 800 l 1
 199 800 l 1
 199 922 l 1
 289 922 l 1
442 922 m 1
 442 800 l 1
 352 800 l 1
 352 922 l 1
 442 922 l 1
EndSplineSet
EndChar

StartChar: Oacute
Encoding: 211 211 49
Width: 638
Flags: MW
HStem: -23 128<278.5 363.5> 613 128<278 363.5 278 371>
VStem: 33 123<304.5 413.5> 486 123<303 410.5 303 433.5>
LayerCount: 2
Fore
SplineSet
320 741 m 0
 407 741 476 707 525 640 c 0
 580 566 609 467 609 354 c 0
 609 252 578 150 525 78 c 0
 477 12 406 -23 321 -23 c 0
 236 -23 166 12 117 78 c 0
 62 151 33 250 33 359 c 0
 33 468 63 570 117 640 c 1
 167 707 236 741 320 741 c 0
321 613 m 0
 221 613 156 513 156 359 c 0
 156 205 221 105 321 105 c 0
 419 105 486 206 486 355 c 0
 486 512 421 613 321 613 c 0
435 936 m 1
 331 786 l 1
 274 786 l 1
 331 936 l 1
 435 936 l 1
EndSplineSet
EndChar

StartChar: Ograve
Encoding: 210 210 50
Width: 638
Flags: MW
HStem: -23 128<278.5 363.5> 613 128<278 363.5 278 371>
VStem: 33 123<304.5 413.5> 486 123<303 410.5 303 433.5>
LayerCount: 2
Fore
SplineSet
320 741 m 0
 407 741 476 707 525 640 c 0
 580 566 609 467 609 354 c 0
 609 252 578 150 525 78 c 0
 477 12 406 -23 321 -23 c 0
 236 -23 166 12 117 78 c 0
 62 151 33 250 33 359 c 0
 33 468 63 570 117 640 c 1
 167 707 236 741 320 741 c 0
321 613 m 0
 221 613 156 513 156 359 c 0
 156 205 221 105 321 105 c 0
 419 105 486 206 486 355 c 0
 486 512 421 613 321 613 c 0
209 936 m 1
 312 936 l 1
 369 786 l 1
 312 786 l 1
 209 936 l 1
EndSplineSet
EndChar

StartChar: Ocircumflex
Encoding: 212 212 51
Width: 638
Flags: MW
HStem: -23 128<278.5 363.5> 613 128<278 363.5 278 371>
VStem: 33 123<304.5 413.5> 486 123<303 410.5 303 433.5>
LayerCount: 2
Fore
SplineSet
320 741 m 0
 407 741 476 707 525 640 c 0
 580 566 609 467 609 354 c 0
 609 252 578 150 525 78 c 0
 477 12 406 -23 321 -23 c 0
 236 -23 166 12 117 78 c 0
 62 151 33 250 33 359 c 0
 33 468 63 570 117 640 c 1
 167 707 236 741 320 741 c 0
321 613 m 0
 221 613 156 513 156 359 c 0
 156 205 221 105 321 105 c 0
 419 105 486 206 486 355 c 0
 486 512 421 613 321 613 c 0
279 936 m 1
 367 936 l 1
 451 786 l 1
 387 786 l 1
 320 886 l 1
 253 786 l 1
 190 786 l 1
 279 936 l 1
EndSplineSet
EndChar

StartChar: Otilde
Encoding: 213 213 52
Width: 638
Flags: W
HStem: -23 128<278.5 363.5> 613 128<278 363.5 278 371> 801 79<387 399 386.5 418> 845 79<256 266 236 270>
VStem: 33 123<304.5 413.5> 486 123<303 410.5 303 433.5>
LayerCount: 2
Fore
SplineSet
320 741 m 0xec
 407 741 476 707 525 640 c 0
 580 566 609 467 609 354 c 0
 609 252 578 150 525 78 c 0
 477 12 406 -23 321 -23 c 0
 236 -23 166 12 117 78 c 0
 62 151 33 250 33 359 c 0
 33 468 63 570 117 640 c 1
 167 707 236 741 320 741 c 0xec
321 613 m 0
 221 613 156 513 156 359 c 0
 156 205 221 105 321 105 c 0
 419 105 486 206 486 355 c 0
 486 512 421 613 321 613 c 0
420 928 m 1
 471 928 l 1
 468 843 442 801 394 801 c 0x2c
 380 801 368 804 349 813 c 2
 290 839 l 2
 280 844 274 845 266 845 c 0
 246 845 237 833 232 800 c 1
 181 800 l 1
 184 878 213 924 259 924 c 0x1c
 273 924 277 923 304 911 c 2
 363 886 l 2
 371 883 383 880 390 880 c 0
 408 880 417 895 420 928 c 1
EndSplineSet
EndChar

StartChar: Scaron
Encoding: 352 352 53
Width: 547
Flags: MW
HStem: -23 120<239 317 239 350.5> 621 120<225.5 296>
VStem: 36 117<504.5 558 504.5 587.5> 401 118<165 224.5>
LayerCount: 2
Fore
SplineSet
498 507 m 1
 383 507 l 1
 379 581 335 621 257 621 c 0
 194 621 153 585 153 531 c 0
 153 478 179 457 267 436 c 2
 361 414 l 2
 471 389 519 328 519 214 c 0
 519 65 427 -23 274 -23 c 0
 122 -23 34 62 26 218 c 1
 146 218 l 1
 150 140 198 97 280 97 c 0
 354 97 401 135 401 195 c 0
 401 254 371 282 288 301 c 2
 205 321 l 1
 84 349 36 404 36 517 c 0
 36 658 120 741 262 741 c 0
 414 741 497 658 498 507 c 1
312 786 m 1
 224 786 l 1
 139 936 l 1
 203 936 l 1
 270 839 l 1
 337 936 l 1
 400 936 l 1
 312 786 l 1
EndSplineSet
EndChar

StartChar: Udieresis
Encoding: 220 220 54
Width: 592
Flags: W
HStem: -23 128<263 335> 800 122<178 268 178 268 178 330 330 420>
VStem: 62 123<235 729> 178 90<800 922 800 922> 330 90<800 922 800 922> 413 123<235 729>
LayerCount: 2
Fore
SplineSet
413 729 m 1xe4
 536 729 l 1
 536 235 l 2
 536 153 518 96 478 51 c 0
 435 4 371 -23 299 -23 c 0
 227 -23 163 4 120 51 c 0
 80 96 62 153 62 235 c 2
 62 729 l 1
 185 729 l 1
 185 235 l 2
 185 147 222 105 299 105 c 0
 376 105 413 147 413 235 c 2
 413 729 l 1xe4
268 922 m 1xd8
 268 800 l 1
 178 800 l 1
 178 922 l 1
 268 922 l 1xd8
420 922 m 1
 420 800 l 1
 330 800 l 1
 330 922 l 1
 420 922 l 1
EndSplineSet
EndChar

StartChar: Uacute
Encoding: 218 218 55
Width: 592
Flags: MW
HStem: -23 128<263 335>
VStem: 62 123<235 729> 413 123<235 729>
LayerCount: 2
Fore
SplineSet
413 729 m 1
 536 729 l 1
 536 235 l 2
 536 153 518 96 478 51 c 0
 435 4 371 -23 299 -23 c 0
 227 -23 163 4 120 51 c 0
 80 96 62 153 62 235 c 2
 62 729 l 1
 185 729 l 1
 185 235 l 2
 185 147 222 105 299 105 c 0
 376 105 413 147 413 235 c 2
 413 729 l 1
413 936 m 1
 309 786 l 1
 252 786 l 1
 309 936 l 1
 413 936 l 1
EndSplineSet
EndChar

StartChar: Ugrave
Encoding: 217 217 56
Width: 592
Flags: MW
HStem: -23 128<263 335>
VStem: 62 123<235 729> 413 123<235 729>
LayerCount: 2
Fore
SplineSet
413 729 m 1
 536 729 l 1
 536 235 l 2
 536 153 518 96 478 51 c 0
 435 4 371 -23 299 -23 c 0
 227 -23 163 4 120 51 c 0
 80 96 62 153 62 235 c 2
 62 729 l 1
 185 729 l 1
 185 235 l 2
 185 147 222 105 299 105 c 0
 376 105 413 147 413 235 c 2
 413 729 l 1
187 936 m 1
 290 936 l 1
 348 786 l 1
 290 786 l 1
 187 936 l 1
EndSplineSet
EndChar

StartChar: Ucircumflex
Encoding: 219 219 57
Width: 592
Flags: MW
HStem: -23 128<263 335>
VStem: 62 123<235 729> 413 123<235 729>
LayerCount: 2
Fore
SplineSet
413 729 m 1
 536 729 l 1
 536 235 l 2
 536 153 518 96 478 51 c 0
 435 4 371 -23 299 -23 c 0
 227 -23 163 4 120 51 c 0
 80 96 62 153 62 235 c 2
 62 729 l 1
 185 729 l 1
 185 235 l 2
 185 147 222 105 299 105 c 0
 376 105 413 147 413 235 c 2
 413 729 l 1
257 936 m 1
 345 936 l 1
 429 786 l 1
 365 786 l 1
 299 886 l 1
 231 786 l 1
 169 786 l 1
 257 936 l 1
EndSplineSet
EndChar

StartChar: Yacute
Encoding: 221 221 58
Width: 547
Flags: MW
HStem: 0 20 709 20<22 160 160 160 396 533 533 533>
VStem: 221 123<0 270 0 270>
LayerCount: 2
Fore
SplineSet
344 270 m 1
 344 0 l 1
 221 0 l 1
 221 270 l 1
 22 729 l 1
 160 729 l 1
 282 407 l 1
 396 729 l 1
 533 729 l 1
 344 270 l 1
394 936 m 1
 290 786 l 1
 233 786 l 1
 290 936 l 1
 394 936 l 1
EndSplineSet
EndChar

StartChar: Zcaron
Encoding: 381 381 59
Width: 501
Flags: MW
HStem: 0 125<169 474 25 25> 604 125<25 330 25 474 25 474>
LayerCount: 2
Fore
SplineSet
474 729 m 1
 474 604 l 1
 169 125 l 1
 474 125 l 1
 474 0 l 1
 25 0 l 1
 25 125 l 1
 330 604 l 1
 25 604 l 1
 25 729 l 1
 474 729 l 1
295 786 m 1
 206 786 l 1
 122 936 l 1
 186 936 l 1
 253 839 l 1
 320 936 l 1
 383 936 l 1
 295 786 l 1
EndSplineSet
EndChar

StartChar: Thorn
Encoding: 222 222 60
Width: 547
Flags: MW
HStem: 0 20 140 125<185 300 185 300 300 332.5 185 338> 484 125<185 300 185 326> 709 20<62 185 185 185>
VStem: 62 123<0 140 265 484 609 729> 396 123<337 411.5>
LayerCount: 2
Fore
SplineSet
185 140 m 1
 185 0 l 1
 62 0 l 1
 62 729 l 1
 185 729 l 1
 185 609 l 1
 326 609 l 2
 393 609 435 592 468 553 c 0
 502 512 519 455 519 383 c 0
 519 233 450 140 338 140 c 2
 185 140 l 1
185 265 m 1
 300 265 l 2
 365 265 396 300 396 374 c 0
 396 449 365 484 300 484 c 2
 185 484 l 1
 185 265 l 1
EndSplineSet
EndChar

StartChar: Ydieresis
Encoding: 376 376 61
Width: 547
Flags: W
HStem: 0 20 709 20<22 160 160 160 396 533 533 533> 800 122<159 249 159 249 159 312 312 402>
VStem: 159 90<800 922 800 922> 221 123<0 270 0 270> 312 90<800 922 800 922>
LayerCount: 2
Fore
SplineSet
344 270 m 1xe8
 344 0 l 1
 221 0 l 1
 221 270 l 1
 22 729 l 1
 160 729 l 1
 282 407 l 1
 396 729 l 1
 533 729 l 1
 344 270 l 1xe8
249 922 m 1xf4
 249 800 l 1
 159 800 l 1
 159 922 l 1
 249 922 l 1xf4
402 922 m 1
 402 800 l 1
 312 800 l 1
 312 922 l 1
 402 922 l 1
EndSplineSet
EndChar

StartChar: a
Encoding: 97 97 62
Width: 456
Flags: MW
HStem: -23 113<179 181> 436 113<195 246>
VStem: 22 115<134 176.5 134 188> 290 113<217 255 255 255 373 383>
LayerCount: 2
Fore
SplineSet
429 17 m 1
 429 0 l 1
 304 0 l 1
 293 16 291 26 291 54 c 1
 250 2 206 -23 156 -23 c 0
 116 -23 77 -4 53 28 c 0
 32 56 22 91 22 139 c 0
 22 237 63 291 152 309 c 1
 198 319 l 2
 255 331 255 331 270 340 c 1
 283 349 290 364 290 382 c 0
 290 419 269 436 223 436 c 0
 167 436 148 419 143 362 c 1
 32 362 l 1
 40 489 101 549 222 549 c 0
 341 549 403 492 403 383 c 2
 403 83 l 2
 403 55 409 40 429 17 c 1
290 217 m 2
 290 255 l 1
 277 247 272 245 242 238 c 2
 202 229 l 1
 154 217 137 198 137 155 c 0
 137 113 159 90 199 90 c 0
 257 90 290 136 290 217 c 2
EndSplineSet
EndChar

StartChar: b
Encoding: 98 98 63
Width: 501
Flags: MW
HStem: -23 117<257.5 288.5 230.5 338> 432 117<257 288.5> 709 20<48 163 163 163>
VStem: 48 115<0 55 213 315 470 729> 356 115<212 313>
LayerCount: 2
Fore
SplineSet
48 729 m 1
 163 729 l 1
 163 470 l 1
 191 524 229 549 285 549 c 0
 394 549 471 430 471 263 c 0
 471 99 391 -23 285 -23 c 0
 230 -23 191 2 163 55 c 1
 163 0 l 1
 48 0 l 1
 48 729 l 1
260 432 m 0
 202 432 163 365 163 265 c 0
 163 161 201 94 260 94 c 0
 317 94 356 162 356 262 c 0
 356 364 317 432 260 432 c 0
EndSplineSet
EndChar

StartChar: c
Encoding: 99 99 64
Width: 456
Flags: MW
HStem: -23 113<207 258.5 207 288.5> 436 113<205 259.5>
VStem: 28 115<206 318 206 351>
LayerCount: 2
Fore
SplineSet
428 338 m 1
 318 338 l 1
 305 409 283 436 236 436 c 0
 174 436 143 377 143 259 c 0
 143 153 178 90 236 90 c 0
 281 90 305 118 318 187 c 1
 428 187 l 1
 417 59 342 -23 235 -23 c 0
 104 -23 28 81 28 259 c 0
 28 443 105 549 237 549 c 0
 348 549 420 470 428 338 c 1
EndSplineSet
EndChar

StartChar: d
Encoding: 100 100 65
Width: 501
Flags: MW
HStem: -23 117<207 237.5> 432 117<207 237.5 157 265> 709 20<332 447 447 447>
VStem: 24 115<211.5 313 211.5 344> 332 115<0 55 55 55 210.5 312 470 729 0 729>
LayerCount: 2
Fore
SplineSet
332 0 m 1
 332 55 l 1
 304 2 265 -23 210 -23 c 0
 101 -23 24 95 24 262 c 0
 24 426 104 549 210 549 c 0
 265 549 304 524 332 470 c 1
 332 729 l 1
 447 729 l 1
 447 0 l 1
 332 0 l 1
236 432 m 0
 178 432 139 364 139 262 c 0
 139 161 178 94 236 94 c 0
 293 94 332 161 332 260 c 0
 332 364 294 432 236 432 c 0
EndSplineSet
EndChar

StartChar: e
Encoding: 101 101 66
Width: 456
Flags: MW
HStem: -23 107<208.5 246 208.5 270.5> 226 93<134 311 134 430 133 311> 442 107<195.5 247.5>
LayerCount: 2
Fore
SplineSet
430 226 m 1
 133 226 l 1
 135 174 139 150 151 128 c 0
 167 99 192 84 225 84 c 0
 267 84 298 108 312 152 c 1
 425 152 l 1
 400 46 320 -23 221 -23 c 0
 94 -23 18 82 18 256 c 0
 18 438 95 549 222 549 c 0
 314 549 388 487 416 385 c 0
 423 359 431 287 431 250 c 0
 431 249 431 245 430 239 c 1
 430 226 l 1
134 319 m 1
 311 319 l 1
 305 399 274 442 221 442 c 0
 170 442 142 403 134 319 c 1
EndSplineSet
EndChar

StartChar: f
Encoding: 102 102 67
Width: 273
Flags: MW
HStem: 0 20 436 93<11 74 11 74 189 256> 624 105<148.5 225>
VStem: 74 115<0 436 0 436 529 582>
LayerCount: 2
Fore
SplineSet
256 529 m 1
 256 436 l 1
 189 436 l 1
 189 0 l 1
 74 0 l 1
 74 436 l 1
 11 436 l 1
 11 529 l 1
 74 529 l 1
 74 594 l 2
 74 685 110 729 187 729 c 0
 206 729 227 728 252 726 c 1
 252 621 l 1
 241 623 230 624 220 624 c 0
 199 624 189 611 189 582 c 2
 189 529 l 1
 256 529 l 1
EndSplineSet
EndChar

StartChar: g
Encoding: 103 103 68
Width: 501
Flags: MW
HStem: -218 90<215.5 266 215.5 300> -23 117<207.5 235.5> 432 117<208.5 238 160 265>
VStem: 29 115<209.5 310.5 209.5 340.5> 335 109<-18 55 55 55 457 540>
LayerCount: 2
Fore
SplineSet
335 540 m 1
 444 540 l 1
 444 -18 l 2
 444 -145 367 -218 233 -218 c 0
 162 -218 113 -200 77 -162 c 0
 50 -133 38 -105 37 -65 c 1
 156 -65 l 1
 165 -106 194 -128 237 -128 c 0
 295 -128 335 -83 335 -18 c 2
 335 55 l 1
 292 -4 262 -23 209 -23 c 0
 101 -23 29 88 29 256 c 0
 29 425 107 549 213 549 c 0
 263 549 301 520 335 457 c 1
 335 540 l 1
236 432 m 0
 181 432 144 362 144 259 c 0
 144 160 180 94 235 94 c 0
 295 94 337 161 337 259 c 0
 337 359 294 432 236 432 c 0
EndSplineSet
EndChar

StartChar: h
Encoding: 104 104 69
Width: 501
Flags: MW
HStem: 0 20 430 119<271.5 282> 709 20<55 170 170 170>
VStem: 55 115<0 324 462 729> 329 115<0 330 330 362 0 363>
LayerCount: 2
Fore
SplineSet
55 729 m 1
 170 729 l 1
 170 462 l 1
 202 522 243 549 300 549 c 0
 337 549 374 534 399 508 c 0
 429 476 444 429 444 362 c 2
 444 0 l 1
 329 0 l 1
 329 330 l 2
 329 396 305 430 259 430 c 0
 207 430 170 386 170 324 c 2
 170 0 l 1
 55 0 l 1
 55 729 l 1
EndSplineSet
EndChar

StartChar: i
Encoding: 105 105 70
Width: 228
Flags: MW
HStem: 0 20 604 125<55 170 55 170>
VStem: 55 115<0 540 0 540 604 729>
LayerCount: 2
Fore
SplineSet
170 540 m 1
 170 0 l 1
 55 0 l 1
 55 540 l 1
 170 540 l 1
170 729 m 1
 170 604 l 1
 55 604 l 1
 55 729 l 1
 170 729 l 1
EndSplineSet
EndChar

StartChar: j
Encoding: 106 106 71
Width: 228
Flags: MW
HStem: -218 20 604 125<57 172 57 172>
VStem: 57 115<-63 540 604 729>
LayerCount: 2
Fore
SplineSet
172 540 m 1
 172 -94 l 2
 172 -182 143 -218 71 -218 c 0
 50 -218 28 -216 3 -213 c 1
 3 -101 l 1
 11 -104 16 -105 24 -105 c 0
 48 -105 57 -93 57 -63 c 2
 57 540 l 1
 172 540 l 1
172 729 m 1
 172 604 l 1
 57 604 l 1
 57 729 l 1
 172 729 l 1
EndSplineSet
EndChar

StartChar: k
Encoding: 107 107 72
Width: 456
Flags: MW
HStem: 0 20 709 20<49 164 164 164>
VStem: 49 115<0 177 330 729>
LayerCount: 2
Fore
SplineSet
164 330 m 1
 309 540 l 1
 440 540 l 1
 289 336 l 1
 450 0 l 1
 316 0 l 1
 210 238 l 1
 164 177 l 1
 164 0 l 1
 49 0 l 1
 49 729 l 1
 164 729 l 1
 164 330 l 1
EndSplineSet
EndChar

StartChar: l
Encoding: 108 108 73
Width: 228
Flags: MW
HStem: 0 20 709 20<55 170 170 170>
VStem: 55 115<0 729 0 729>
LayerCount: 2
Fore
SplineSet
170 729 m 1
 170 0 l 1
 55 0 l 1
 55 729 l 1
 170 729 l 1
EndSplineSet
EndChar

StartChar: m
Encoding: 109 109 74
Width: 729
Flags: W
HStem: 0 20 430 119<259 262.5 506.5 517> 520 20<49 163 163 163>
VStem: 49 114<473 540 473 540 473 540> 49 115<0 324 0 540> 305 115<0 324 0 360 0 382> 560 115<0 360 360 381.5>
LayerCount: 2
Fore
SplineSet
49 540 m 1xae
 163 540 l 1
 163 473 l 1x30
 204 531 233 549 285 549 c 0
 339 549 384 519 405 469 c 1
 440 525 479 549 534 549 c 0
 622 549 675 487 675 382 c 2
 675 0 l 1
 560 0 l 1
 560 360 l 2
 560 403 536 430 498 430 c 0
 449 430 420 390 420 324 c 2
 420 0 l 1
 305 0 l 1
 305 360 l 2
 305 404 282 430 243 430 c 0xce
 193 430 164 390 164 324 c 2
 164 0 l 1
 49 0 l 1
 49 540 l 1xae
EndSplineSet
EndChar

StartChar: n
Encoding: 110 110 75
Width: 501
Flags: W
HStem: 0 20 430 119<269.5 283.5> 520 20<52 167 167 167>
VStem: 52 115<0 324 462 540> 333 115<0 333 333 362 0 365.5>
LayerCount: 2
Fore
SplineSet
52 540 m 1xb8
 167 540 l 1x38
 167 462 l 1
 200 523 239 549 300 549 c 0
 394 549 448 482 448 362 c 2
 448 0 l 1
 333 0 l 1
 333 333 l 2
 333 398 308 430 259 430 c 0xd8
 203 430 167 388 167 324 c 2
 167 0 l 1
 52 0 l 1
 52 540 l 1xb8
EndSplineSet
EndChar

StartChar: o
Encoding: 111 111 76
Width: 501
Flags: MW
HStem: -23 113<216.5 279 216.5 315.5> 436 113<216.5 279.5>
VStem: 29 115<211 315 211 352> 352 115<210.5 314>
LayerCount: 2
Fore
SplineSet
247 549 m 0
 386 549 467 442 467 259 c 0
 467 86 383 -23 248 -23 c 0
 112 -23 29 85 29 263 c 0
 29 441 112 549 247 549 c 0
248 436 m 0
 185 436 144 367 144 263 c 0
 144 159 185 90 248 90 c 0
 310 90 352 160 352 261 c 0
 352 367 311 436 248 436 c 0
EndSplineSet
EndChar

StartChar: p
Encoding: 112 112 77
Width: 501
Flags: MW
HStem: -218 20 -24 117<258.5 288.5 231 339.5> 432 117<258 288.5>
VStem: 48 115<-218 64 211.5 313 460 540> 356 115<210.5 312.5>
LayerCount: 2
Fore
SplineSet
163 540 m 1
 163 460 l 1
 191 521 230 549 286 549 c 0
 396 549 471 432 471 262 c 0
 471 98 393 -24 286 -24 c 0
 231 -24 191 5 163 64 c 1
 163 -218 l 1
 48 -218 l 1
 48 540 l 1
 163 540 l 1
259 432 m 0
 201 432 163 364 163 262 c 0
 163 161 202 93 260 93 c 0
 317 93 356 161 356 260 c 0
 356 365 318 432 259 432 c 0
EndSplineSet
EndChar

StartChar: q
Encoding: 113 113 78
Width: 501
Flags: MW
HStem: -218 20 -24 117<205.5 234.5> 432 117<205 235.5 154.5 263.5>
VStem: 23 115<223.5 313 211.5 345> 331 115<-218 64 64 64 211 312 460 540 -218 540>
LayerCount: 2
Fore
SplineSet
331 540 m 1
 446 540 l 1
 446 -218 l 1
 331 -218 l 1
 331 64 l 1
 305 6 262 -24 207 -24 c 0
 156 -24 99 11 70 61 c 0
 40 112 23 185 23 262 c 0
 23 428 101 549 208 549 c 0
 263 549 304 519 331 460 c 1
 331 540 l 1
234 432 m 0
 176 432 138 364 138 262 c 0
 138 161 177 93 234 93 c 0
 291 93 331 162 331 260 c 0
 331 364 293 432 234 432 c 0
EndSplineSet
EndChar

StartChar: r
Encoding: 114 114 79
Width: 319
Flags: W
HStem: 0 20 520 20<52 167 167 167> 529 20<263.5 292.5>
VStem: 52 115<0 287 434 540>
LayerCount: 2
Fore
SplineSet
52 540 m 1xd0
 167 540 l 1x50
 167 434 l 1
 192 507 237 549 290 549 c 0x30
 295 549 298 549 304 548 c 1
 304 406 l 1
 214 423 167 383 167 287 c 2
 167 0 l 1
 52 0 l 1
 52 540 l 1xd0
EndSplineSet
EndChar

StartChar: s
Encoding: 115 115 80
Width: 456
Flags: MW
HStem: -23 110<197 254 197 264.5> 439 110<200.5 248>
VStem: 40 115<377.5 404.5 377.5 425> 312 115<134 150.5>
LayerCount: 2
Fore
SplineSet
414 366 m 1
 303 366 l 1
 303 415 275 439 221 439 c 0
 180 439 155 420 155 389 c 0
 155 366 162 359 195 347 c 2
 340 296 l 2
 398 275 427 230 427 160 c 0
 427 108 408 58 375 25 c 0
 342 -7 296 -23 233 -23 c 0
 98 -23 27 38 24 157 c 1
 136 157 l 1
 145 104 167 87 227 87 c 0
 281 87 312 106 312 140 c 0
 312 161 302 173 274 184 c 2
 137 236 l 2
 94 253 79 262 64 281 c 0
 48 303 40 331 40 369 c 0
 40 481 109 549 221 549 c 0
 341 549 413 481 414 366 c 1
EndSplineSet
EndChar

StartChar: t
Encoding: 116 116 81
Width: 273
Flags: MW
HStem: -23 106<142.5 224.5> 436 93<11 68 11 68 183 246>
VStem: 68 115<118 142 142 436 529 674>
LayerCount: 2
Fore
SplineSet
246 529 m 1
 246 436 l 1
 183 436 l 1
 183 142 l 2
 183 94 190 83 220 83 c 0
 229 83 235 84 246 86 c 1
 246 -12 l 1
 225 -20 206 -23 180 -23 c 0
 105 -23 68 19 68 104 c 2
 68 436 l 1
 11 436 l 1
 11 529 l 1
 68 529 l 1
 68 674 l 1
 183 674 l 1
 183 529 l 1
 246 529 l 1
EndSplineSet
EndChar

StartChar: u
Encoding: 117 117 82
Width: 501
Flags: MW
HStem: -23 119<212.5 226.5> 520 20<48 163 163 163 329 444 444 444>
VStem: 48 115<164 193 193 540> 329 115<0 64 64 64 202 540>
LayerCount: 2
Fore
SplineSet
444 0 m 1
 329 0 l 1
 329 64 l 1
 296 3 257 -23 196 -23 c 0
 102 -23 48 44 48 164 c 2
 48 540 l 1
 163 540 l 1
 163 193 l 2
 163 127 187 96 238 96 c 0
 293 96 329 138 329 202 c 2
 329 540 l 1
 444 540 l 1
 444 0 l 1
EndSplineSet
EndChar

StartChar: v
Encoding: 118 118 83
Width: 456
Flags: MW
HStem: 0 20 520 20<12 134 134 134 319 440 440 440>
LayerCount: 2
Fore
SplineSet
288 0 m 1
 167 0 l 1
 12 540 l 1
 134 540 l 1
 229 145 l 1
 319 540 l 1
 440 540 l 1
 288 0 l 1
EndSplineSet
EndChar

StartChar: w
Encoding: 119 119 84
Width: 638
Flags: MW
HStem: 0 20 520 20<4 123 123 123 261 376 376 376 509 628 628 628>
LayerCount: 2
Fore
SplineSet
502 0 m 1
 384 0 l 1
 317 381 l 1
 247 0 l 1
 129 0 l 1
 4 540 l 1
 123 540 l 1
 193 162 l 1
 261 540 l 1
 376 540 l 1
 442 162 l 1
 509 540 l 1
 628 540 l 1
 502 0 l 1
EndSplineSet
EndChar

StartChar: x
Encoding: 120 120 85
Width: 456
Flags: MW
HStem: 0 20 520 20<16 154 154 154 297 435 435 435>
LayerCount: 2
Fore
SplineSet
291 272 m 1
 439 0 l 1
 301 0 l 1
 226 168 l 1
 151 0 l 1
 13 0 l 1
 161 272 l 1
 16 540 l 1
 154 540 l 1
 226 377 l 1
 297 540 l 1
 435 540 l 1
 291 272 l 1
EndSplineSet
EndChar

StartChar: y
Encoding: 121 121 86
Width: 456
Flags: MW
HStem: -219 103<103 121.5 96 127> 520 20<7 133 133 133 323 441 441 441>
LayerCount: 2
Fore
SplineSet
323 540 m 1
 441 540 l 1
 258 -99 l 2
 239 -166 225 -187 191 -203 c 1
 170 -214 143 -219 111 -219 c 0
 95 -219 86 -218 70 -215 c 1
 70 -110 l 1
 84 -114 92 -116 100 -116 c 0
 143 -116 172 -78 172 -22 c 1
 7 540 l 1
 133 540 l 1
 231 146 l 1
 323 540 l 1
EndSplineSet
EndChar

StartChar: z
Encoding: 122 122 87
Width: 410
Flags: MW
HStem: 0 113<158 384 17 17> 427 113<31 235 31 376 31 376>
LayerCount: 2
Fore
SplineSet
376 540 m 1
 376 427 l 1
 158 113 l 1
 384 113 l 1
 384 0 l 1
 17 0 l 1
 17 113 l 1
 235 427 l 1
 31 427 l 1
 31 540 l 1
 376 540 l 1
EndSplineSet
EndChar

StartChar: ae
Encoding: 230 230 88
Width: 729
Flags: W
HStem: -24 113<180 192.5> -23 107<482 518 482 542> 226 93<406 583 406 702 404 583> 436 113<194 244> 442 107<467.5 520.5>
VStem: 21 115<135 175.5 135 189.5>
LayerCount: 2
Fore
SplineSet
584 152 m 1x6c
 697 152 l 1
 671 45 592 -23 492 -23 c 0x44
 419 -23 362 13 328 81 c 1
 277 9 225 -24 160 -24 c 0
 76 -24 21 41 21 141 c 0
 21 238 64 294 152 312 c 1
 198 322 l 1
 255 333 255 333 270 343 c 0
 283 352 290 367 290 384 c 0
 290 419 268 436 220 436 c 0
 168 436 148 417 143 362 c 1
 35 362 l 1
 37 487 99 549 222 549 c 0x94
 287 549 333 533 366 499 c 1
 399 532 442 549 492 549 c 0
 621 549 702 439 702 265 c 2
 702 251 l 1
 702 239 l 1
 702 226 l 1
 404 226 l 1
 405 178 409 154 422 131 c 0
 439 101 466 84 498 84 c 0
 538 84 573 112 584 152 c 1x6c
290 216 m 2xac
 290 254 l 1
 276 244 266 240 242 235 c 2
 202 228 l 2
 158 221 136 196 136 155 c 0
 136 115 161 89 199 89 c 0
 223 89 250 102 265 120 c 0
 281 140 290 173 290 216 c 2xac
406 319 m 1
 583 319 l 1
 577 401 547 442 494 442 c 0
 441 442 411 400 406 319 c 1
EndSplineSet
EndChar

StartChar: oe
Encoding: 339 339 89
Width: 774
Flags: W
HStem: -23 107<534 570.5 534 594.5> -23 113<206.5 269 206.5 271> 226 93<458 635 458 754 457 635> 436 113<206.5 269.5> 442 107<530 559.5>
VStem: 19 115<211 315 211 352>
LayerCount: 2
Fore
SplineSet
636 152 m 1xac
 749 152 l 1
 723 45 644 -23 545 -23 c 0x94
 485 -23 433 3 397 52 c 1
 356 2 304 -23 238 -23 c 0
 102 -23 19 85 19 263 c 0
 19 441 102 549 238 549 c 0x54
 305 549 357 525 398 473 c 1
 432 523 483 549 545 549 c 0
 638 549 712 487 740 385 c 0
 747 358 755 289 755 251 c 2
 755 239 l 1
 754 226 l 1
 457 226 l 1
 458 179 463 153 475 130 c 0
 491 101 518 84 550 84 c 0
 591 84 626 112 636 152 c 1xac
238 436 m 0
 175 436 134 367 134 263 c 0
 134 159 175 90 238 90 c 0x74
 300 90 342 159 342 261 c 0
 342 367 301 436 238 436 c 0
458 319 m 1
 635 319 l 1
 631 359 626 380 615 399 c 0
 599 426 573 442 546 442 c 0x2c
 514 442 485 420 471 385 c 0
 465 368 461 350 458 319 c 1
EndSplineSet
EndChar

StartChar: oslash
Encoding: 248 248 90
Width: 501
Flags: W
HStem: -23 113<237.5 281.5 237.5 318.5> 437 112<218 262.5> 537 20<455 455>
VStem: 29 115<251.5 316 251.5 351.5> 355 115<210 274>
LayerCount: 2
Fore
SplineSet
103 35 m 1xb8
 44 -38 l 1
 9 2 l 1
 71 79 l 1
 43 128 29 190 29 263 c 0
 29 440 113 549 250 549 c 0xd8
 310 549 357 530 399 487 c 1
 455 557 l 1
 490 516 l 1
 431 443 l 1
 458 392 470 335 470 263 c 0
 470 86 386 -23 251 -23 c 0
 192 -23 137 -1 103 35 c 1xb8
345 336 m 1
 181 132 l 1
 200 104 224 90 251 90 c 0
 312 90 355 160 355 260 c 0
 355 288 352 312 345 336 c 1
156 185 m 1
 321 390 l 1
 298 424 277 437 248 437 c 0
 188 437 144 366 144 266 c 0
 144 237 149 206 156 185 c 1
EndSplineSet
EndChar

StartChar: germandbls
Encoding: 223 223 91
Width: 501
Flags: W
HStem: -17 20 616 113<221.5 266.5>
VStem: 55 115<0 518 518 537 0 558> 321 115<513 559> 357 115<189.5 264>
LayerCount: 2
Fore
SplineSet
234 349 m 1xc8
 234 444 l 1
 241 444 l 1
 245 444 l 2
 291 444 321 479 321 533 c 0
 321 585 291 616 242 616 c 0
 196 616 170 587 170 537 c 2
 170 0 l 1
 55 0 l 1
 55 518 l 2
 55 598 71 648 108 682 c 0
 140 711 194 729 249 729 c 0
 360 729 436 655 436 547 c 0xf0
 436 479 412 434 365 412 c 1
 394 404 409 394 430 371 c 0
 460 336 472 297 472 236 c 0
 472 84 401 -17 292 -17 c 0
 273 -17 260 -16 234 -11 c 1
 234 101 l 1
 239 102 243 102 244 102 c 2
 261 102 l 2
 316 102 357 154 357 225 c 0
 357 303 315 349 245 349 c 2
 234 349 l 1xc8
EndSplineSet
EndChar

StartChar: dotlessi
Encoding: 305 305 92
Width: 228
Flags: MW
HStem: 0 20 520 20<55 170 170 170>
VStem: 55 115<0 540 0 540>
LayerCount: 2
Fore
SplineSet
170 540 m 1
 170 0 l 1
 55 0 l 1
 55 540 l 1
 170 540 l 1
EndSplineSet
EndChar

StartChar: fi
Encoding: 64257 64257 93
Width: 501
Flags: W
HStem: 0 20 436 93<7 70 7 70 185 252> 604 125<334 449> 624 105<144.5 221>
VStem: 70 115<0 436 0 436 529 582> 334 115<0 540 0 540 604 729>
LayerCount: 2
Fore
SplineSet
449 540 m 1xec
 449 0 l 1
 334 0 l 1
 334 540 l 1
 449 540 l 1xec
449 729 m 1
 449 604 l 1
 334 604 l 1
 334 729 l 1
 449 729 l 1
252 529 m 1
 252 436 l 1
 185 436 l 1
 185 0 l 1
 70 0 l 1
 70 436 l 1
 7 436 l 1
 7 529 l 1
 70 529 l 1
 70 594 l 2
 70 685 106 729 183 729 c 0
 202 729 223 728 248 726 c 1
 248 621 l 1
 237 623 226 624 216 624 c 0xdc
 195 624 185 611 185 582 c 2
 185 529 l 1
 252 529 l 1
EndSplineSet
EndChar

StartChar: fl
Encoding: 64258 64258 94
Width: 501
Flags: W
HStem: 0 20 436 93<10 73 10 73 188 255> 624 105<147.5 224> 709 20<147.5 195.5 333 448 448 448>
VStem: 73 115<0 436 0 436 529 582> 333 115<0 729 0 729>
LayerCount: 2
Fore
SplineSet
448 729 m 1xdc
 448 0 l 1
 333 0 l 1
 333 729 l 1
 448 729 l 1xdc
255 529 m 1
 255 436 l 1
 188 436 l 1
 188 0 l 1
 73 0 l 1
 73 436 l 1
 10 436 l 1
 10 529 l 1
 73 529 l 1
 73 594 l 2
 73 685 109 729 186 729 c 0
 205 729 226 728 251 726 c 1
 251 621 l 1
 240 623 229 624 219 624 c 0xec
 198 624 188 611 188 582 c 2
 188 529 l 1
 255 529 l 1
EndSplineSet
EndChar

StartChar: adieresis
Encoding: 228 228 95
Width: 456
Flags: W
HStem: -23 113<179 181> 436 113<195 246> 621 122<102 192 102 192 102 254 254 344>
VStem: 22 115<134 176.5 134 188> 102 90<621 743 621 743> 254 90<621 743 621 743> 290 113<217 255 255 255 373 383>
LayerCount: 2
Fore
SplineSet
429 17 m 1xf2
 429 0 l 1
 304 0 l 1
 293 16 291 26 291 54 c 1
 250 2 206 -23 156 -23 c 0
 116 -23 77 -4 53 28 c 0
 32 56 22 91 22 139 c 0
 22 237 63 291 152 309 c 1
 198 319 l 2
 255 331 255 331 270 340 c 1
 283 349 290 364 290 382 c 0
 290 419 269 436 223 436 c 0
 167 436 148 419 143 362 c 1
 32 362 l 1
 40 489 101 549 222 549 c 0
 341 549 403 492 403 383 c 2
 403 83 l 2
 403 55 409 40 429 17 c 1xf2
290 217 m 2
 290 255 l 1
 277 247 272 245 242 238 c 2
 202 229 l 1
 154 217 137 198 137 155 c 0
 137 113 159 90 199 90 c 0
 257 90 290 136 290 217 c 2
192 743 m 1xec
 192 621 l 1
 102 621 l 1
 102 743 l 1
 192 743 l 1xec
344 743 m 1
 344 621 l 1
 254 621 l 1
 254 743 l 1
 344 743 l 1
EndSplineSet
EndChar

StartChar: aacute
Encoding: 225 225 96
Width: 456
Flags: MW
HStem: -23 113<179 181> 436 113<195 246>
VStem: 22 115<134 176.5 134 188> 290 113<217 255 255 255 373 383>
LayerCount: 2
Fore
SplineSet
429 17 m 1
 429 0 l 1
 304 0 l 1
 293 16 291 26 291 54 c 1
 250 2 206 -23 156 -23 c 0
 116 -23 77 -4 53 28 c 0
 32 56 22 91 22 139 c 0
 22 237 63 291 152 309 c 1
 198 319 l 2
 255 331 255 331 270 340 c 1
 283 349 290 364 290 382 c 0
 290 419 269 436 223 436 c 0
 167 436 148 419 143 362 c 1
 32 362 l 1
 40 489 101 549 222 549 c 0
 341 549 403 492 403 383 c 2
 403 83 l 2
 403 55 409 40 429 17 c 1
290 217 m 2
 290 255 l 1
 277 247 272 245 242 238 c 2
 202 229 l 1
 154 217 137 198 137 155 c 0
 137 113 159 90 199 90 c 0
 257 90 290 136 290 217 c 2
337 757 m 1
 233 607 l 1
 176 607 l 1
 233 757 l 1
 337 757 l 1
EndSplineSet
EndChar

StartChar: agrave
Encoding: 224 224 97
Width: 456
Flags: MW
HStem: -23 113<179 181> 436 113<195 246>
VStem: 22 115<134 176.5 134 188> 290 113<217 255 255 255 373 383>
LayerCount: 2
Fore
SplineSet
429 17 m 1
 429 0 l 1
 304 0 l 1
 293 16 291 26 291 54 c 1
 250 2 206 -23 156 -23 c 0
 116 -23 77 -4 53 28 c 0
 32 56 22 91 22 139 c 0
 22 237 63 291 152 309 c 1
 198 319 l 2
 255 331 255 331 270 340 c 1
 283 349 290 364 290 382 c 0
 290 419 269 436 223 436 c 0
 167 436 148 419 143 362 c 1
 32 362 l 1
 40 489 101 549 222 549 c 0
 341 549 403 492 403 383 c 2
 403 83 l 2
 403 55 409 40 429 17 c 1
290 217 m 2
 290 255 l 1
 277 247 272 245 242 238 c 2
 202 229 l 1
 154 217 137 198 137 155 c 0
 137 113 159 90 199 90 c 0
 257 90 290 136 290 217 c 2
108 757 m 1
 212 757 l 1
 269 607 l 1
 212 607 l 1
 108 757 l 1
EndSplineSet
EndChar

StartChar: acircumflex
Encoding: 226 226 98
Width: 456
Flags: MW
HStem: -23 113<179 181> 436 113<195 246>
VStem: 22 115<134 176.5 134 188> 290 113<217 255 255 255 373 383>
LayerCount: 2
Fore
SplineSet
429 17 m 1
 429 0 l 1
 304 0 l 1
 293 16 291 26 291 54 c 1
 250 2 206 -23 156 -23 c 0
 116 -23 77 -4 53 28 c 0
 32 56 22 91 22 139 c 0
 22 237 63 291 152 309 c 1
 198 319 l 2
 255 331 255 331 270 340 c 1
 283 349 290 364 290 382 c 0
 290 419 269 436 223 436 c 0
 167 436 148 419 143 362 c 1
 32 362 l 1
 40 489 101 549 222 549 c 0
 341 549 403 492 403 383 c 2
 403 83 l 2
 403 55 409 40 429 17 c 1
290 217 m 2
 290 255 l 1
 277 247 272 245 242 238 c 2
 202 229 l 1
 154 217 137 198 137 155 c 0
 137 113 159 90 199 90 c 0
 257 90 290 136 290 217 c 2
181 757 m 1
 269 757 l 1
 353 607 l 1
 290 607 l 1
 223 707 l 1
 155 607 l 1
 93 607 l 1
 181 757 l 1
EndSplineSet
EndChar

StartChar: atilde
Encoding: 227 227 99
Width: 456
Flags: W
HStem: -23 113<179 181> 436 113<195 246> 666 79<152.5 162.5 132.5 166.5> 729 20<317 368 368 368>
VStem: 22 115<134 176.5 134 188> 290 113<217 255 255 255 373 383>
LayerCount: 2
Fore
SplineSet
429 17 m 1xdc
 429 0 l 1
 304 0 l 1
 293 16 291 26 291 54 c 1
 250 2 206 -23 156 -23 c 0
 116 -23 77 -4 53 28 c 0
 32 56 22 91 22 139 c 0
 22 237 63 291 152 309 c 1
 198 319 l 2
 255 331 255 331 270 340 c 1
 283 349 290 364 290 382 c 0
 290 419 269 436 223 436 c 0
 167 436 148 419 143 362 c 1
 32 362 l 1
 40 489 101 549 222 549 c 0
 341 549 403 492 403 383 c 2
 403 83 l 2
 403 55 409 40 429 17 c 1xdc
290 217 m 2
 290 255 l 1
 277 247 272 245 242 238 c 2
 202 229 l 1
 154 217 137 198 137 155 c 0
 137 113 159 90 199 90 c 0
 257 90 290 136 290 217 c 2
317 749 m 1
 368 749 l 1x1c
 364 663 339 622 291 622 c 0
 277 622 264 625 245 634 c 2
 187 660 l 2
 177 664 171 666 162 666 c 0
 143 666 133 653 129 621 c 1
 78 621 l 1
 81 699 110 745 155 745 c 0x2c
 170 745 173 744 201 732 c 2
 259 707 l 2
 264 705 278 701 283 701 c 0
 304 699 313 713 317 749 c 1
EndSplineSet
EndChar

StartChar: aring
Encoding: 229 229 100
Width: 456
Flags: W
HStem: -23 113<179 181> 436 113<195 246> 590 48<214.5 233 214.5 243> 722 48<214.5 233>
VStem: 22 115<134 176.5 134 188> 149 39<669 691 669 705> 258 39<669 691.5> 290 113<217 255 255 255 373 383>
LayerCount: 2
Fore
SplineSet
429 17 m 1xfd
 429 0 l 1
 304 0 l 1
 293 16 291 26 291 54 c 1
 250 2 206 -23 156 -23 c 0
 116 -23 77 -4 53 28 c 0
 32 56 22 91 22 139 c 0
 22 237 63 291 152 309 c 1
 198 319 l 2
 255 331 255 331 270 340 c 1
 283 349 290 364 290 382 c 0
 290 419 269 436 223 436 c 0
 167 436 148 419 143 362 c 1
 32 362 l 1
 40 489 101 549 222 549 c 0
 341 549 403 492 403 383 c 2
 403 83 l 2
 403 55 409 40 429 17 c 1xfd
290 217 m 2
 290 255 l 1
 277 247 272 245 242 238 c 2
 202 229 l 1
 154 217 137 198 137 155 c 0
 137 113 159 90 199 90 c 0
 257 90 290 136 290 217 c 2
224 770 m 0
 265 770 297 730 297 679 c 0xf6
 297 631 263 590 223 590 c 0
 182 590 149 631 149 680 c 0
 149 730 182 770 224 770 c 0
224 722 m 0
 205 722 188 702 188 680 c 0
 188 658 205 638 224 638 c 0
 242 638 258 658 258 680 c 0
 258 703 242 722 224 722 c 0
EndSplineSet
EndChar

StartChar: ccedilla
Encoding: 231 231 101
Width: 456
Flags: MW
HStem: -220 50<196.5 216.5 191 250.5> -94 184<207 222> 436 113<205 259.5>
VStem: 28 115<206 319 206 351> 250 71<-141 -118>
LayerCount: 2
Fore
SplineSet
239 -23 m 1
 225 -63 l 1
 235 -58 248 -56 258 -56 c 0
 298 -56 321 -83 321 -127 c 0
 321 -188 285 -220 216 -220 c 0
 177 -220 156 -215 102 -192 c 1
 118 -140 l 1
 160 -163 179 -170 203 -170 c 0
 230 -170 250 -153 250 -129 c 0
 250 -107 235 -94 209 -94 c 0
 192 -94 184 -96 168 -106 c 1
 204 -21 l 1
 90 -3 28 95 28 259 c 0
 28 443 105 549 237 549 c 0
 348 549 420 470 428 338 c 1
 318 338 l 1
 305 409 283 436 236 436 c 0
 174 436 143 377 143 261 c 0
 143 151 177 90 237 90 c 0
 281 90 305 118 318 187 c 1
 428 187 l 1
 419 62 341 -24 239 -23 c 1
EndSplineSet
EndChar

StartChar: edieresis
Encoding: 235 235 102
Width: 456
Flags: MW
HStem: -23 107<208.5 246 208.5 270.5> 226 93<134 311 134 430 133 311> 442 107<195.5 247.5> 621 122<108 198 108 198 108 261 261 351>
VStem: 108 90<621 743 621 743> 261 90<621 743 621 743>
LayerCount: 2
Fore
SplineSet
430 226 m 1
 133 226 l 1
 135 174 139 150 151 128 c 0
 167 99 192 84 225 84 c 0
 267 84 298 108 312 152 c 1
 425 152 l 1
 400 46 320 -23 221 -23 c 0
 94 -23 18 82 18 256 c 0
 18 438 95 549 222 549 c 0
 314 549 388 487 416 385 c 0
 423 359 431 287 431 250 c 0
 431 249 431 245 430 239 c 1
 430 226 l 1
134 319 m 1
 311 319 l 1
 305 399 274 442 221 442 c 0
 170 442 142 403 134 319 c 1
198 743 m 1
 198 621 l 1
 108 621 l 1
 108 743 l 1
 198 743 l 1
351 743 m 1
 351 621 l 1
 261 621 l 1
 261 743 l 1
 351 743 l 1
EndSplineSet
EndChar

StartChar: eacute
Encoding: 233 233 103
Width: 456
Flags: MW
HStem: -23 107<208.5 246 208.5 270.5> 226 93<134 311 134 430 133 311> 442 107<195.5 247.5>
LayerCount: 2
Fore
SplineSet
430 226 m 1
 133 226 l 1
 135 174 139 150 151 128 c 0
 167 99 192 84 225 84 c 0
 267 84 298 108 312 152 c 1
 425 152 l 1
 400 46 320 -23 221 -23 c 0
 94 -23 18 82 18 256 c 0
 18 438 95 549 222 549 c 0
 314 549 388 487 416 385 c 0
 423 359 431 287 431 250 c 0
 431 249 431 245 430 239 c 1
 430 226 l 1
134 319 m 1
 311 319 l 1
 305 399 274 442 221 442 c 0
 170 442 142 403 134 319 c 1
343 757 m 1
 240 607 l 1
 183 607 l 1
 240 757 l 1
 343 757 l 1
EndSplineSet
EndChar

StartChar: egrave
Encoding: 232 232 104
Width: 456
Flags: MW
HStem: -23 107<208.5 246 208.5 270.5> 226 93<134 311 134 430 133 311> 442 107<195.5 247.5>
LayerCount: 2
Fore
SplineSet
430 226 m 1
 133 226 l 1
 135 174 139 150 151 128 c 0
 167 99 192 84 225 84 c 0
 267 84 298 108 312 152 c 1
 425 152 l 1
 400 46 320 -23 221 -23 c 0
 94 -23 18 82 18 256 c 0
 18 438 95 549 222 549 c 0
 314 549 388 487 416 385 c 0
 423 359 431 287 431 250 c 0
 431 249 431 245 430 239 c 1
 430 226 l 1
134 319 m 1
 311 319 l 1
 305 399 274 442 221 442 c 0
 170 442 142 403 134 319 c 1
109 757 m 1
 213 757 l 1
 270 607 l 1
 213 607 l 1
 109 757 l 1
EndSplineSet
EndChar

StartChar: ecircumflex
Encoding: 234 234 105
Width: 456
Flags: MW
HStem: -23 107<208.5 246 208.5 270.5> 226 93<134 311 134 430 133 311> 442 107<195.5 247.5>
LayerCount: 2
Fore
SplineSet
430 226 m 1
 133 226 l 1
 135 174 139 150 151 128 c 0
 167 99 192 84 225 84 c 0
 267 84 298 108 312 152 c 1
 425 152 l 1
 400 46 320 -23 221 -23 c 0
 94 -23 18 82 18 256 c 0
 18 438 95 549 222 549 c 0
 314 549 388 487 416 385 c 0
 423 359 431 287 431 250 c 0
 431 249 431 245 430 239 c 1
 430 226 l 1
134 319 m 1
 311 319 l 1
 305 399 274 442 221 442 c 0
 170 442 142 403 134 319 c 1
187 757 m 1
 276 757 l 1
 360 607 l 1
 296 607 l 1
 229 707 l 1
 162 607 l 1
 99 607 l 1
 187 757 l 1
EndSplineSet
EndChar

StartChar: idieresis
Encoding: 239 239 106
Width: 228
Flags: W
HStem: 0 20 520 20<55 170 170 170> 621 122<-7 83 -7 83 -7 146 146 236>
VStem: -7 90<621 743 621 743> 55 115<0 540 0 540> 146 90<621 743 621 743>
LayerCount: 2
Fore
SplineSet
170 540 m 1xe8
 170 0 l 1
 55 0 l 1
 55 540 l 1
 170 540 l 1xe8
83 743 m 1xf4
 83 621 l 1
 -7 621 l 1
 -7 743 l 1
 83 743 l 1xf4
236 743 m 1
 236 621 l 1
 146 621 l 1
 146 743 l 1
 236 743 l 1
EndSplineSet
EndChar

StartChar: iacute
Encoding: 237 237 107
Width: 228
Flags: MW
HStem: 0 20 520 20<55 170 170 170>
VStem: 55 115<0 540 0 540>
LayerCount: 2
Fore
SplineSet
170 540 m 1
 170 0 l 1
 55 0 l 1
 55 540 l 1
 170 540 l 1
238 757 m 1
 134 607 l 1
 77 607 l 1
 134 757 l 1
 238 757 l 1
EndSplineSet
EndChar

StartChar: igrave
Encoding: 236 236 108
Width: 228
Flags: MW
HStem: 0 20 520 20<55 170 170 170>
VStem: 55 115<0 540 0 540>
LayerCount: 2
Fore
SplineSet
170 540 m 1
 170 0 l 1
 55 0 l 1
 55 540 l 1
 170 540 l 1
-8 757 m 1
 95 757 l 1
 153 607 l 1
 95 607 l 1
 -8 757 l 1
EndSplineSet
EndChar

StartChar: icircumflex
Encoding: 238 238 109
Width: 228
Flags: MW
HStem: 0 20 520 20<54 169 169 169>
VStem: 54 115<0 540 0 540>
LayerCount: 2
Fore
SplineSet
169 540 m 1
 169 0 l 1
 54 0 l 1
 54 540 l 1
 169 540 l 1
72 757 m 1
 160 757 l 1
 245 607 l 1
 181 607 l 1
 114 707 l 1
 47 607 l 1
 -16 607 l 1
 72 757 l 1
EndSplineSet
EndChar

StartChar: lslash
Encoding: 322 322 110
Width: 228
Flags: MW
HStem: 0 20 709 20<46 161 161 161>
VStem: 46 115<0 294 294 294 442 729>
LayerCount: 2
Fore
SplineSet
161 442 m 1
 207 482 l 1
 207 403 l 1
 161 363 l 1
 161 0 l 1
 46 0 l 1
 46 294 l 1
 0 254 l 1
 0 333 l 1
 46 373 l 1
 46 729 l 1
 161 729 l 1
 161 442 l 1
EndSplineSet
EndChar

StartChar: ntilde
Encoding: 241 241 111
Width: 501
Flags: W
HStem: 0 20 430 119<269.5 283.5> 520 20<52 167 167 167> 666 79<177 187 157 191> 729 20<341 392 392 392>
VStem: 52 115<0 324 462 540> 333 115<0 333 333 362 0 365.5>
LayerCount: 2
Fore
SplineSet
52 540 m 1xa6
 167 540 l 1x2e
 167 462 l 1
 200 523 239 549 300 549 c 0
 394 549 448 482 448 362 c 2
 448 0 l 1
 333 0 l 1
 333 333 l 2
 333 398 308 430 259 430 c 0xc6
 203 430 167 388 167 324 c 2
 167 0 l 1
 52 0 l 1
 52 540 l 1xa6
341 749 m 1
 392 749 l 1x0e
 389 664 363 622 315 622 c 0
 301 622 289 625 270 634 c 2
 211 660 l 2
 201 664 195 666 187 666 c 0
 167 666 158 653 153 621 c 1
 102 621 l 1
 105 699 134 745 180 745 c 0x16
 194 745 197 744 225 732 c 2
 284 707 l 2
 288 705 303 701 307 701 c 0
 328 699 338 713 341 749 c 1
EndSplineSet
EndChar

StartChar: odieresis
Encoding: 246 246 112
Width: 501
Flags: W
HStem: -23 113<216.5 279 216.5 315.5> 436 113<216.5 279.5> 621 122<127 217 127 217 127 279 279 369>
VStem: 29 115<211 315 211 352> 127 90<621 743 621 743> 279 90<621 743 621 743> 352 115<210.5 314>
LayerCount: 2
Fore
SplineSet
247 549 m 0xf2
 386 549 467 442 467 259 c 0
 467 86 383 -23 248 -23 c 0
 112 -23 29 85 29 263 c 0
 29 441 112 549 247 549 c 0xf2
248 436 m 0
 185 436 144 367 144 263 c 0
 144 159 185 90 248 90 c 0
 310 90 352 160 352 261 c 0
 352 367 311 436 248 436 c 0
217 743 m 1xec
 217 621 l 1
 127 621 l 1
 127 743 l 1
 217 743 l 1xec
369 743 m 1
 369 621 l 1
 279 621 l 1
 279 743 l 1
 369 743 l 1
EndSplineSet
EndChar

StartChar: oacute
Encoding: 243 243 113
Width: 501
Flags: MW
HStem: -23 113<216.5 279 216.5 315.5> 436 113<216.5 279.5>
VStem: 29 115<211 315 211 352> 352 115<210.5 314>
LayerCount: 2
Fore
SplineSet
247 549 m 0
 386 549 467 442 467 259 c 0
 467 86 383 -23 248 -23 c 0
 112 -23 29 85 29 263 c 0
 29 441 112 549 247 549 c 0
248 436 m 0
 185 436 144 367 144 263 c 0
 144 159 185 90 248 90 c 0
 310 90 352 160 352 261 c 0
 352 367 311 436 248 436 c 0
362 757 m 1
 258 607 l 1
 201 607 l 1
 258 757 l 1
 362 757 l 1
EndSplineSet
EndChar

StartChar: ograve
Encoding: 242 242 114
Width: 501
Flags: MW
HStem: -23 113<216.5 279 216.5 315.5> 436 113<216.5 279.5>
VStem: 29 115<211 315 211 352> 352 115<210.5 314>
LayerCount: 2
Fore
SplineSet
247 549 m 0
 386 549 467 442 467 259 c 0
 467 86 383 -23 248 -23 c 0
 112 -23 29 85 29 263 c 0
 29 441 112 549 247 549 c 0
248 436 m 0
 185 436 144 367 144 263 c 0
 144 159 185 90 248 90 c 0
 310 90 352 160 352 261 c 0
 352 367 311 436 248 436 c 0
136 757 m 1
 239 757 l 1
 297 607 l 1
 239 607 l 1
 136 757 l 1
EndSplineSet
EndChar

StartChar: ocircumflex
Encoding: 244 244 115
Width: 501
Flags: MW
HStem: -23 113<216.5 279 216.5 315.5> 436 113<216.5 279.5>
VStem: 29 115<211 315 211 352> 352 115<210.5 314>
LayerCount: 2
Fore
SplineSet
247 549 m 0
 386 549 467 442 467 259 c 0
 467 86 383 -23 248 -23 c 0
 112 -23 29 85 29 263 c 0
 29 441 112 549 247 549 c 0
248 436 m 0
 185 436 144 367 144 263 c 0
 144 159 185 90 248 90 c 0
 310 90 352 160 352 261 c 0
 352 367 311 436 248 436 c 0
206 757 m 1
 294 757 l 1
 378 607 l 1
 314 607 l 1
 247 707 l 1
 180 607 l 1
 118 607 l 1
 206 757 l 1
EndSplineSet
EndChar

StartChar: otilde
Encoding: 245 245 116
Width: 501
Flags: W
HStem: -23 113<216.5 279 216.5 315.5> 436 113<216.5 279.5> 666 79<180 190.5 160.5 194> 729 20<345 396 396 396>
VStem: 29 115<211 315 211 352> 352 115<210.5 314>
LayerCount: 2
Fore
SplineSet
247 549 m 0xdc
 386 549 467 442 467 259 c 0
 467 86 383 -23 248 -23 c 0
 112 -23 29 85 29 263 c 0
 29 441 112 549 247 549 c 0xdc
248 436 m 0
 185 436 144 367 144 263 c 0
 144 159 185 90 248 90 c 0
 310 90 352 160 352 261 c 0
 352 367 311 436 248 436 c 0
345 749 m 1
 396 749 l 1x1c
 392 663 367 622 318 622 c 0
 304 622 292 625 273 634 c 2
 215 660 l 2
 205 664 198 666 190 666 c 0
 170 666 161 654 157 621 c 1
 106 621 l 1
 108 698 138 745 183 745 c 0x2c
 198 745 200 744 228 732 c 2
 287 707 l 2
 292 705 306 701 310 701 c 0
 331 700 341 713 345 749 c 1
EndSplineSet
EndChar

StartChar: scaron
Encoding: 353 353 117
Width: 456
Flags: MW
HStem: -23 110<197 254 197 264.5> 439 110<200.5 248>
VStem: 40 115<377.5 404.5 377.5 425> 312 115<134 150.5>
LayerCount: 2
Fore
SplineSet
414 366 m 1
 303 366 l 1
 303 415 275 439 221 439 c 0
 180 439 155 420 155 389 c 0
 155 366 162 359 195 347 c 2
 340 296 l 2
 398 275 427 230 427 160 c 0
 427 108 408 58 375 25 c 0
 342 -7 296 -23 233 -23 c 0
 98 -23 27 38 24 157 c 1
 136 157 l 1
 145 104 167 87 227 87 c 0
 281 87 312 106 312 140 c 0
 312 161 302 173 274 184 c 2
 137 236 l 2
 94 253 79 262 64 281 c 0
 48 303 40 331 40 369 c 0
 40 481 109 549 221 549 c 0
 341 549 413 481 414 366 c 1
273 607 m 1
 185 607 l 1
 100 757 l 1
 164 757 l 1
 231 660 l 1
 299 757 l 1
 361 757 l 1
 273 607 l 1
EndSplineSet
EndChar

StartChar: udieresis
Encoding: 252 252 118
Width: 501
Flags: W
HStem: -23 119<212.5 226.5> 520 20<48 163 163 163 329 444 444 444> 621 122<125 215 125 215 125 277 277 367>
VStem: 48 115<164 193 193 540> 125 90<621 743 621 743> 277 90<621 743 621 743> 329 115<0 64 64 64 202 540>
LayerCount: 2
Fore
SplineSet
444 0 m 1xf2
 329 0 l 1
 329 64 l 1
 296 3 257 -23 196 -23 c 0
 102 -23 48 44 48 164 c 2
 48 540 l 1
 163 540 l 1
 163 193 l 2
 163 127 187 96 238 96 c 0
 293 96 329 138 329 202 c 2
 329 540 l 1
 444 540 l 1
 444 0 l 1xf2
215 743 m 1xec
 215 621 l 1
 125 621 l 1
 125 743 l 1
 215 743 l 1xec
367 743 m 1
 367 621 l 1
 277 621 l 1
 277 743 l 1
 367 743 l 1
EndSplineSet
EndChar

StartChar: uacute
Encoding: 250 250 119
Width: 501
Flags: MW
HStem: -23 119<212.5 226.5> 520 20<48 163 163 163 329 444 444 444>
VStem: 48 115<164 193 193 540> 329 115<0 64 64 64 202 540>
LayerCount: 2
Fore
SplineSet
444 0 m 1
 329 0 l 1
 329 64 l 1
 296 3 257 -23 196 -23 c 0
 102 -23 48 44 48 164 c 2
 48 540 l 1
 163 540 l 1
 163 193 l 2
 163 127 187 96 238 96 c 0
 293 96 329 138 329 202 c 2
 329 540 l 1
 444 540 l 1
 444 0 l 1
360 757 m 1
 256 607 l 1
 199 607 l 1
 256 757 l 1
 360 757 l 1
EndSplineSet
EndChar

StartChar: ugrave
Encoding: 249 249 120
Width: 501
Flags: MW
HStem: -23 119<212.5 226.5> 520 20<48 163 163 163 329 444 444 444>
VStem: 48 115<164 193 193 540> 329 115<0 64 64 64 202 540>
LayerCount: 2
Fore
SplineSet
444 0 m 1
 329 0 l 1
 329 64 l 1
 296 3 257 -23 196 -23 c 0
 102 -23 48 44 48 164 c 2
 48 540 l 1
 163 540 l 1
 163 193 l 2
 163 127 187 96 238 96 c 0
 293 96 329 138 329 202 c 2
 329 540 l 1
 444 540 l 1
 444 0 l 1
134 757 m 1
 237 757 l 1
 295 607 l 1
 237 607 l 1
 134 757 l 1
EndSplineSet
EndChar

StartChar: ucircumflex
Encoding: 251 251 121
Width: 501
Flags: MW
HStem: -23 119<212.5 226.5> 520 20<48 163 163 163 329 444 444 444>
VStem: 48 115<164 193 193 540> 329 115<0 64 64 64 202 540>
LayerCount: 2
Fore
SplineSet
444 0 m 1
 329 0 l 1
 329 64 l 1
 296 3 257 -23 196 -23 c 0
 102 -23 48 44 48 164 c 2
 48 540 l 1
 163 540 l 1
 163 193 l 2
 163 127 187 96 238 96 c 0
 293 96 329 138 329 202 c 2
 329 540 l 1
 444 540 l 1
 444 0 l 1
204 757 m 1
 292 757 l 1
 376 607 l 1
 313 607 l 1
 246 707 l 1
 178 607 l 1
 116 607 l 1
 204 757 l 1
EndSplineSet
EndChar

StartChar: yacute
Encoding: 253 253 122
Width: 456
Flags: MW
HStem: -219 103<103 121.5 96 127>
LayerCount: 2
Fore
SplineSet
323 540 m 1
 441 540 l 1
 258 -99 l 2
 239 -166 225 -187 191 -203 c 1
 170 -214 143 -219 111 -219 c 0
 95 -219 86 -218 70 -215 c 1
 70 -110 l 1
 84 -114 92 -116 100 -116 c 0
 143 -116 172 -78 172 -22 c 1
 7 540 l 1
 133 540 l 1
 231 146 l 1
 323 540 l 1
338 757 m 1
 234 607 l 1
 177 607 l 1
 234 757 l 1
 338 757 l 1
EndSplineSet
EndChar

StartChar: zcaron
Encoding: 382 382 123
Width: 410
Flags: MW
HStem: 0 113<158 384 17 17> 427 113<31 235 31 376 31 376>
LayerCount: 2
Fore
SplineSet
376 540 m 1
 376 427 l 1
 158 113 l 1
 384 113 l 1
 384 0 l 1
 17 0 l 1
 17 113 l 1
 235 427 l 1
 31 427 l 1
 31 540 l 1
 376 540 l 1
248 607 m 1
 160 607 l 1
 75 757 l 1
 139 757 l 1
 206 660 l 1
 274 757 l 1
 336 757 l 1
 248 607 l 1
EndSplineSet
EndChar

StartChar: eth
Encoding: 240 240 124
Width: 501
Flags: W
HStem: -23 113<216.5 279 216.5 317> 429 105<216.5 236 207.5 279.5> 721 20<157 157> 724 20<313 313>
VStem: 29 116<208.5 311.5 208.5 321> 351 116<207.5 310.5>
LayerCount: 2
Fore
SplineSet
354 710 m 1x1c
 285 660 l 1
 410 558 467 435 467 269 c 0
 467 85 386 -23 248 -23 c 0
 111 -23 29 85 29 265 c 0
 29 377 61 456 126 501 c 0
 158 523 190 534 225 534 c 0
 247 534 263 530 295 515 c 1
 273 558 248 589 217 612 c 1
 154 565 l 1
 119 602 l 1
 176 646 l 1
 155 662 143 669 102 694 c 1
 157 741 l 1xec
 188 727 191 725 229 699 c 1
 241 692 l 1
 313 744 l 1
 354 710 l 1x1c
248 429 m 0
 185 429 145 363 145 260 c 0
 145 157 185 90 248 90 c 0
 310 90 351 157 351 258 c 0
 351 363 311 429 248 429 c 0
EndSplineSet
EndChar

StartChar: thorn
Encoding: 254 254 125
Width: 501
Flags: MW
HStem: -218 20 -23 117<258 289 230.5 339.5> 432 117<258 288.5> 709 20<48 163 163 163>
VStem: 48 115<-218 64 211.5 313.5 460 729> 356 115<210 312.5>
LayerCount: 2
Fore
SplineSet
163 729 m 1
 163 460 l 1
 191 520 230 549 286 549 c 0
 393 549 471 428 471 262 c 0
 471 97 393 -23 286 -23 c 0
 230 -23 191 4 163 64 c 1
 163 -218 l 1
 48 -218 l 1
 48 729 l 1
 163 729 l 1
259 432 m 0
 201 432 163 365 163 262 c 0
 163 161 201 94 260 94 c 0
 318 94 356 160 356 260 c 0
 356 365 318 432 259 432 c 0
EndSplineSet
EndChar

StartChar: ydieresis
Encoding: 255 255 126
Width: 456
Flags: MW
HStem: -219 103<103 121.5 96 127> 621 122<103 193 103 193 103 255 255 345>
VStem: 103 90<621 743 621 743> 255 90<621 743 621 743>
LayerCount: 2
Fore
SplineSet
323 540 m 1
 441 540 l 1
 258 -99 l 2
 239 -166 225 -187 191 -203 c 1
 170 -214 143 -219 111 -219 c 0
 95 -219 86 -218 70 -215 c 1
 70 -110 l 1
 84 -114 92 -116 100 -116 c 0
 143 -116 172 -78 172 -22 c 1
 7 540 l 1
 133 540 l 1
 231 146 l 1
 323 540 l 1
193 743 m 1
 193 621 l 1
 103 621 l 1
 103 743 l 1
 193 743 l 1
345 743 m 1
 345 621 l 1
 255 621 l 1
 255 743 l 1
 345 743 l 1
EndSplineSet
EndChar

StartChar: one
Encoding: 49 49 127
Width: 456
Flags: MW
HStem: 0 20
VStem: 195 115<0 489 489 489>
LayerCount: 2
Fore
SplineSet
195 489 m 1
 56 489 l 1
 56 582 l 1
 155 582 216 625 234 709 c 1
 310 709 l 1
 310 0 l 1
 195 0 l 1
 195 489 l 1
EndSplineSet
EndChar

StartChar: two
Encoding: 50 50 128
Width: 456
Flags: MW
HStem: 0 125<174 420 174 420> 610 114<199.5 251.5>
VStem: 32 110<484 524 482 562> 308 115<457 532>
LayerCount: 2
Fore
SplineSet
420 125 m 1
 420 0 l 1
 25 0 l 1
 30 132 61 194 159 276 c 1
 288 388 308 418 308 496 c 0
 308 568 277 610 226 610 c 0
 173 610 142 564 142 484 c 0
 142 480 142 472 143 462 c 1
 33 462 l 1
 32 473 32 482 32 486 c 0
 32 638 102 724 224 724 c 0
 345 724 423 636 423 498 c 0
 423 403 393 349 292 259 c 0
 207 183 189 163 174 125 c 1
 420 125 l 1
EndSplineSet
EndChar

StartChar: three
Encoding: 51 51 129
Width: 456
Flags: W
HStem: -23 120<195 247.5 195 282> 611 113<200 240.5>
VStem: 289 115<498 548> 308 115<172 239.5>
LayerCount: 2
Fore
SplineSet
178 317 m 1xd0
 178 411 l 1
 188 411 l 2
 256 411 289 446 289 518 c 0
 289 578 264 611 217 611 c 0
 183 611 156 591 146 557 c 0
 141 541 139 522 138 486 c 1
 31 486 l 1
 32 567 41 609 67 648 c 0
 101 697 154 724 220 724 c 0
 333 724 404 649 404 531 c 0xe0
 404 465 382 422 328 380 c 1
 394 341 423 287 423 204 c 0
 423 65 344 -23 220 -23 c 0
 100 -23 23 68 24 208 c 1
 135 208 l 1
 138 134 168 97 222 97 c 0
 273 97 308 140 308 204 c 0
 308 275 269 317 203 317 c 2
 193 317 l 1
 178 317 l 1xd0
EndSplineSet
EndChar

StartChar: four
Encoding: 52 52 130
Width: 456
Flags: MW
HStem: 0 20 157 116<102 253 102 253 20 253 368 428 102 368>
VStem: 253 115<0 157 0 157 273 576 576 576>
LayerCount: 2
Fore
SplineSet
428 273 m 1
 428 157 l 1
 368 157 l 1
 368 0 l 1
 253 0 l 1
 253 157 l 1
 20 157 l 1
 20 275 l 1
 233 709 l 1
 368 709 l 1
 368 273 l 1
 428 273 l 1
253 273 m 1
 253 576 l 1
 102 273 l 1
 253 273 l 1
EndSplineSet
EndChar

StartChar: five
Encoding: 53 53 131
Width: 456
Flags: MW
HStem: -23 120<191 245 191 276> 368 111<224 245> 584 125<160 401 160 160>
VStem: 309 115<189.5 274>
LayerCount: 2
Fore
SplineSet
401 709 m 1
 401 584 l 1
 160 584 l 1
 142 436 l 1
 175 466 205 479 243 479 c 0
 350 479 424 379 424 235 c 0
 424 81 339 -23 213 -23 c 0
 101 -23 24 61 22 185 c 1
 135 185 l 1
 137 128 166 97 216 97 c 0
 274 97 309 148 309 231 c 0
 309 317 274 368 216 368 c 0
 181 368 154 349 142 314 c 1
 39 314 l 1
 90 709 l 1
 401 709 l 1
EndSplineSet
EndChar

StartChar: six
Encoding: 54 54 132
Width: 456
Flags: MW
HStem: -23 120<202 253.5 202 289> 356 111<233 255> 611 113<215 256>
VStem: 26 113<187.5 402> 316 109<189.5 266.5>
LayerCount: 2
Fore
SplineSet
416 548 m 1
 309 548 l 1
 294 594 274 611 238 611 c 0
 192 611 159 573 148 509 c 0
 143 478 143 478 141 404 c 1
 177 449 210 467 256 467 c 0
 357 467 425 374 425 237 c 0
 425 81 347 -23 231 -23 c 0
 161 -23 99 17 68 81 c 0
 38 142 26 215 26 338 c 0
 26 466 39 543 74 614 c 0
 109 685 169 724 242 724 c 0
 306 724 361 692 390 638 c 0
 402 616 410 591 416 548 c 1
228 356 m 0
 176 356 139 302 139 225 c 0
 139 150 176 97 228 97 c 0
 279 97 316 152 316 227 c 0
 316 306 282 356 228 356 c 0
EndSplineSet
EndChar

StartChar: seven
Encoding: 55 55 133
Width: 456
Flags: MW
HStem: 0 20 584 125<24 313 24 433>
LayerCount: 2
Fore
SplineSet
433 709 m 1
 433 599 l 1
 296 398 235 222 225 0 c 1
 109 0 l 1
 132 239 187 398 313 584 c 1
 24 584 l 1
 24 709 l 1
 433 709 l 1
EndSplineSet
EndChar

StartChar: eight
Encoding: 56 56 134
Width: 456
Flags: W
HStem: -23 120<196 252 196 285> 330 95<199.5 251 199.5 252.5> 611 113<199.5 251>
VStem: 18 115<176.5 246> 38 101<497 546.5 490.5 588> 311 100<497.5 546> 315 115<175 247 136.5 247.5>
LayerCount: 2
Fore
SplineSet
335 386 m 1xec
 403 341 430 290 430 204 c 0
 430 69 346 -23 224 -23 c 0
 103 -23 18 70 18 204 c 0xf2
 18 288 46 342 114 386 c 1
 60 420 38 462 38 532 c 0
 38 644 116 724 224 724 c 0
 332 724 411 643 411 532 c 0
 411 463 389 420 335 386 c 1xec
225 611 m 0xec
 174 611 139 574 139 519 c 0
 139 462 173 425 226 425 c 0
 276 425 311 463 311 518 c 0
 311 574 277 611 225 611 c 0xec
224 330 m 0xf2
 169 330 133 284 133 212 c 0
 133 141 168 97 224 97 c 0
 280 97 315 140 315 210 c 0
 315 285 281 330 224 330 c 0xf2
EndSplineSet
EndChar

StartChar: nine
Encoding: 57 57 135
Width: 456
Flags: MW
HStem: -23 120<192 232 192 246> 228 116<191.5 211> 610 114<190 244>
VStem: 23 109<436 517.5 436 549>
LayerCount: 2
Fore
SplineSet
31 165 m 1
 142 165 l 1
 144 123 171 97 213 97 c 0
 251 97 277 120 293 167 c 0
 301 191 308 242 308 273 c 2
 308 286 l 1
 308 298 l 1
 289 271 283 264 273 255 c 0
 255 238 225 228 197 228 c 0
 94 228 23 328 23 475 c 0
 23 623 102 724 218 724 c 0
 291 724 350 682 386 603 c 0
 411 550 423 472 423 370 c 0
 423 251 405 146 373 82 c 0
 338 12 283 -23 209 -23 c 0
 108 -23 34 56 31 165 c 1
216 610 m 0
 164 610 132 559 132 476 c 0
 132 396 166 344 217 344 c 0
 270 344 306 397 306 474 c 0
 306 559 272 610 216 610 c 0
EndSplineSet
EndChar

StartChar: zero
Encoding: 48 48 136
Width: 456
Flags: MW
HStem: -23 120<209.5 241 209.5 254.5> 611 113<207.5 238.5>
VStem: 24 115<299.5 392.5 299.5 421> 309 115<307.5 402.5>
LayerCount: 2
Fore
SplineSet
224 724 m 0
 294 724 352 684 386 613 c 0
 412 559 424 474 424 346 c 0
 424 208 408 119 372 63 c 0
 336 7 285 -23 224 -23 c 0
 154 -23 96 17 62 88 c 0
 37 142 24 228 24 350 c 0
 24 492 40 582 76 638 c 0
 112 694 163 724 224 724 c 0
224 611 m 0
 191 611 165 585 152 540 c 0
 144 510 139 434 139 351 c 0
 139 248 145 180 158 149 c 0
 173 115 195 97 224 97 c 0
 258 97 283 121 296 166 c 0
 304 196 309 266 309 349 c 0
 309 456 303 525 290 557 c 0
 276 592 253 611 224 611 c 0
EndSplineSet
EndChar

StartChar: sterling
Encoding: 163 163 137
Width: 456
Flags: W
HStem: -23 125<314.5 334 314.5 342.5> 9 114<145 225> 316 55<26 75 26 99 26 75 208 308 208 208> 604 111<203.5 243.5>
VStem: 32 115<504 540.5 504 544.5> 116 104<228 243.5>
LayerCount: 2
Fore
SplineSet
308 371 m 1x78
 308 316 l 1
 208 316 l 1
 218 288 220 278 220 258 c 0
 220 198 195 153 126 86 c 1
 175 116 192 123 217 123 c 0x64
 233 123 237 122 269 112 c 0
 290 106 308 102 321 102 c 0
 347 102 376 112 407 131 c 1
 441 22 l 1
 395 -11 363 -23 322 -23 c 0x84
 300 -23 282 -20 241 -7 c 0
 201 5 182 9 160 9 c 0
 130 9 107 1 71 -21 c 1
 26 80 l 1
 93 136 116 173 116 231 c 0x74
 116 256 112 277 99 316 c 1
 26 316 l 1
 26 371 l 1
 75 371 l 1
 39 449 32 472 32 516 c 0
 32 573 55 629 93 666 c 0
 127 698 172 715 227 715 c 0
 315 715 379 674 408 599 c 0
 419 572 424 539 428 484 c 1
 321 484 l 1
 315 537 312 548 300 565 c 1
 283 592 260 604 227 604 c 0
 180 604 147 567 147 514 c 0
 147 494 150 485 169 436 c 0
 185 397 190 385 194 371 c 1
 308 371 l 1x78
EndSplineSet
EndChar

StartChar: dollar
Encoding: 36 36 138
Width: 456
Flags: MW
VStem: 32 101<494 542 494 568> 199 55<-126 -21 -126 -21 86 282 427 608 709 763> 323 108<157.5 207>
LayerCount: 2
Fore
SplineSet
423 498 m 1
 318 498 l 1
 320 559 296 601 254 608 c 1
 254 407 l 1
 381 364 431 305 431 196 c 0
 431 69 371 -5 254 -21 c 1
 254 -126 l 1
 199 -126 l 1
 199 -21 l 1
 86 -7 18 75 18 198 c 2
 18 207 l 1
 125 207 l 1
 128 138 153 96 199 86 c 1
 199 299 l 1
 88 330 32 401 32 511 c 0
 32 625 93 697 199 709 c 1
 199 763 l 1
 254 763 l 1
 254 709 l 1
 357 702 421 623 423 498 c 1
199 427 m 1
 199 608 l 1
 154 597 133 568 133 516 c 0
 133 472 153 445 199 427 c 1
254 282 m 1
 254 86 l 1
 300 100 323 132 323 183 c 0
 323 231 300 265 254 282 c 1
EndSplineSet
EndChar

StartChar: cent
Encoding: 162 162 139
Width: 456
Flags: MW
VStem: 30 115<212.5 311 212.5 346> 212 36<-124 -23 -124 -22 -124 -22 94 433 433 433 549 634>
LayerCount: 2
Fore
SplineSet
248 435 m 1
 248 91 l 1
 286 98 305 125 317 187 c 1
 427 187 l 1
 418 66 345 -18 248 -23 c 1
 248 -124 l 1
 212 -124 l 1
 212 -22 l 1
 98 -13 30 91 30 259 c 0
 30 433 93 533 212 548 c 1
 212 634 l 1
 248 634 l 1
 248 549 l 1
 349 547 420 463 427 338 c 1
 317 338 l 1
 307 400 287 429 248 435 c 1
212 94 m 1
 212 433 l 1
 167 420 145 362 145 260 c 0
 145 165 168 109 212 94 c 1
EndSplineSet
EndChar

StartChar: florin
Encoding: 402 402 140
Width: 456
Flags: MW
HStem: -220 116<77 98 76 136.5> 383 97<85 186 85 199 309 410> 628 116<361 373 317 384>
LayerCount: 2
Fore
SplineSet
410 480 m 1
 410 383 l 1
 297 383 l 1
 249 1 l 2
 230 -154 182 -220 91 -220 c 0
 63 -220 43 -214 17 -198 c 1
 36 -83 l 1
 56 -98 69 -104 83 -104 c 0
 113 -104 126 -77 137 7 c 2
 186 383 l 1
 85 383 l 1
 85 480 l 1
 199 480 l 1
 207 539 l 2
 227 681 274 744 360 744 c 0
 386 744 403 740 438 727 c 1
 422 612 l 1
 399 625 391 628 377 628 c 0
 345 628 324 594 315 521 c 1
 309 480 l 1
 410 480 l 1
EndSplineSet
EndChar

StartChar: Euro
Encoding: 8364 8364 141
Width: 456
Flags: MW
HStem: -23 131<262.5 294> 250 68<31 61 31 68 11 61 185 315 185 185> 386 68<31 61 11 68 186 354> 594 130<265 303>
LayerCount: 2
Fore
SplineSet
186 454 m 1
 374 454 l 1
 354 386 l 1
 176 386 l 1
 175 342 l 2
 175 326 175 326 176 318 c 1
 334 318 l 1
 315 250 l 1
 185 250 l 1
 200 164 240 108 285 108 c 0
 316 108 335 117 395 160 c 1
 395 11 l 1
 335 -15 309 -23 279 -23 c 0
 227 -23 172 7 135 58 c 0
 106 97 78 177 68 250 c 1
 11 250 l 1
 31 318 l 1
 61 318 l 1
 60 334 60 334 60 350 c 2
 60 383 l 1
 61 384 61 385 61 386 c 1
 11 386 l 1
 31 454 l 1
 68 454 l 1
 68 458 l 1
 81 543 117 624 163 671 c 0
 199 707 240 724 290 724 c 0
 345 724 378 708 432 656 c 1
 395 527 l 1
 348 577 320 594 286 594 c 0
 238 594 202 543 186 454 c 1
EndSplineSet
EndChar

StartChar: yen
Encoding: 165 165 142
Width: 456
Flags: MW
HStem: 0 20 180 59<58 176 58 176 291 407> 292 59<58 170 58 176 58 170 295 407>
VStem: 176 115<0 180 0 180 239 292 0 292>
LayerCount: 2
Fore
SplineSet
407 351 m 1
 407 292 l 1
 291 292 l 1
 291 239 l 1
 407 239 l 1
 407 180 l 1
 291 180 l 1
 291 0 l 1
 176 0 l 1
 176 180 l 1
 58 180 l 1
 58 239 l 1
 176 239 l 1
 176 292 l 1
 58 292 l 1
 58 351 l 1
 170 351 l 1
 4 704 l 1
 119 704 l 1
 232 450 l 1
 341 704 l 1
 452 704 l 1
 295 351 l 1
 407 351 l 1
EndSplineSet
EndChar

StartChar: onesuperior
Encoding: 185 185 143
Width: 273
Flags: MW
VStem: 117 78<284 573 573 573>
LayerCount: 2
Fore
SplineSet
117 573 m 1
 29 573 l 1
 29 634 l 1
 94 634 131 658 142 709 c 1
 195 709 l 1
 195 284 l 1
 117 284 l 1
 117 573 l 1
EndSplineSet
EndChar

StartChar: twosuperior
Encoding: 178 178 144
Width: 273
Flags: MW
HStem: 644 74<120 151.5>
VStem: 11 75<573.5 596 571.5 621> 185 78<558 600.5>
LayerCount: 2
Fore
SplineSet
261 365 m 1
 261 284 l 1
 7 284 l 1
 9 364 29 403 92 453 c 1
 173 519 185 536 185 580 c 0
 185 621 167 644 136 644 c 0
 104 644 86 619 86 573 c 0
 86 570 86 564 87 557 c 1
 12 557 l 1
 11 565 11 572 11 575 c 0
 11 667 57 718 139 718 c 0
 219 718 263 670 263 584 c 0
 263 524 245 492 179 438 c 1
 126 393 126 392 108 365 c 1
 261 365 l 1
EndSplineSet
EndChar

StartChar: threesuperior
Encoding: 179 179 145
Width: 273
Flags: W
HStem: 271 77<116.5 148.5 116.5 172> 645 73<120 143>
VStem: 173 78<582 607.5> 185 78<390.5 427.5>
LayerCount: 2
Fore
SplineSet
103 471 m 1xd0
 103 533 l 1
 111 533 l 2
 152 533 173 553 173 591 c 0
 173 624 156 645 130 645 c 0
 110 645 94 633 88 615 c 0
 85 605 83 593 83 571 c 1
 11 571 l 1
 13 622 19 647 36 671 c 0
 57 702 91 718 133 718 c 0
 205 718 251 672 251 601 c 0xe0
 251 563 237 534 209 512 c 1
 245 490 263 456 263 409 c 0
 263 325 212 271 132 271 c 0
 52 271 5 324 6 414 c 1
 81 414 l 1
 83 370 100 348 133 348 c 0
 164 348 185 373 185 408 c 0
 185 447 157 475 121 471 c 1
 116 471 l 1
 103 471 l 1xd0
EndSplineSet
EndChar

StartChar: period
Encoding: 46 46 146
Width: 228
Flags: MW
HStem: 0 146<52 175 52 175>
VStem: 52 123<0 146 0 146>
LayerCount: 2
Fore
SplineSet
175 146 m 1
 175 0 l 1
 52 0 l 1
 52 146 l 1
 175 146 l 1
EndSplineSet
EndChar

StartChar: colon
Encoding: 58 58 147
Width: 273
Flags: MW
HStem: 0 146<93 216 93 216> 374 146<93 216 93 216>
VStem: 93 123<0 146 0 146 374 520>
LayerCount: 2
Fore
SplineSet
216 146 m 1
 216 0 l 1
 93 0 l 1
 93 146 l 1
 216 146 l 1
216 520 m 1
 216 374 l 1
 93 374 l 1
 93 520 l 1
 216 520 l 1
EndSplineSet
EndChar

StartChar: periodcentered
Encoding: 183 183 148
Width: 228
Flags: MW
HStem: 169 123<52 154 52 154>
VStem: 52 102<169 292 169 292>
LayerCount: 2
Fore
SplineSet
52 292 m 1
 154 292 l 1
 154 169 l 1
 52 169 l 1
 52 292 l 1
EndSplineSet
EndChar

StartChar: middot
Encoding: 183 183 149
Width: 228
Flags: MW
HStem: 169 123<52 154 52 154>
VStem: 52 102<169 292 169 292>
LayerCount: 2
Fore
SplineSet
52 292 m 1
 154 292 l 1
 154 169 l 1
 52 169 l 1
 52 292 l 1
EndSplineSet
EndChar

StartChar: ellipsis
Encoding: 8230 8230 150
Width: 820
Flags: MW
HStem: 0 146<75 198 75 198 348 471 621 744>
VStem: 75 123<0 146 0 146> 348 123<0 146 0 146> 621 123<0 146 0 146>
LayerCount: 2
Fore
SplineSet
198 146 m 1
 198 0 l 1
 75 0 l 1
 75 146 l 1
 198 146 l 1
471 146 m 1
 471 0 l 1
 348 0 l 1
 348 146 l 1
 471 146 l 1
744 146 m 1
 744 0 l 1
 621 0 l 1
 621 146 l 1
 744 146 l 1
EndSplineSet
EndChar

StartChar: comma
Encoding: 44 44 151
Width: 228
Flags: MW
HStem: 0 146<52 122 52 175>
VStem: 52 123<-174 9 -118 9 0 9 9 146>
LayerCount: 2
Fore
SplineSet
52 146 m 1
 175 146 l 1
 175 9 l 2
 175 -70 163 -108 128 -139 c 1
 107 -159 84 -169 52 -174 c 1
 52 -118 l 1
 101 -107 124 -69 122 0 c 1
 52 0 l 1
 52 146 l 1
EndSplineSet
EndChar

StartChar: semicolon
Encoding: 59 59 152
Width: 273
Flags: MW
HStem: 0 146<93 163 93 216> 374 146<93 216 93 216>
VStem: 93 123<-174 9 -118 9 0 9 9 146 374 520>
LayerCount: 2
Fore
SplineSet
93 146 m 1
 216 146 l 1
 216 9 l 2
 216 -70 204 -108 169 -139 c 1
 148 -159 125 -169 93 -174 c 1
 93 -118 l 1
 142 -107 165 -69 163 0 c 1
 93 0 l 1
 93 146 l 1
216 520 m 1
 216 374 l 1
 93 374 l 1
 93 520 l 1
 216 520 l 1
EndSplineSet
EndChar

StartChar: quoteleft
Encoding: 8216 8216 153
Width: 228
Flags: MW
HStem: 469 125<100 166 100 166 55 166> 709 20<166 166>
VStem: 55 111<469 578 578 594>
LayerCount: 2
Fore
SplineSet
166 469 m 1
 55 469 l 1
 55 578 l 2
 55 635 66 668 92 695 c 0
 112 715 138 727 166 729 c 1
 166 683 l 1
 120 673 98 644 100 594 c 1
 166 594 l 1
 166 469 l 1
EndSplineSet
EndChar

StartChar: quotedblright
Encoding: 8221 8221 154
Width: 410
Flags: MW
HStem: 604 125<60 126 60 171 60 250 250 316>
VStem: 60 111<469 620 515 620 604 620 620 729 592 729> 250 111<469 620 515 620 604 620 620 729 591.5 729>
LayerCount: 2
Fore
SplineSet
60 729 m 1
 171 729 l 1
 171 620 l 2
 171 564 160 530 134 503 c 0
 114 483 88 471 60 469 c 1
 60 515 l 1
 107 525 127 554 126 604 c 1
 60 604 l 1
 60 729 l 1
250 729 m 1
 361 729 l 1
 361 620 l 2
 361 563 350 530 324 503 c 0
 304 483 278 471 250 469 c 1
 250 515 l 1
 296 525 318 554 316 604 c 1
 250 604 l 1
 250 729 l 1
EndSplineSet
EndChar

StartChar: quotedblleft
Encoding: 8220 8220 155
Width: 410
Flags: MW
HStem: 469 125<103 169 103 169 58 169 103 244 289 355> 709 20<169 169 355 355>
VStem: 58 111<469 578 578 594> 244 111<469 578 578 594>
LayerCount: 2
Fore
SplineSet
169 469 m 1
 58 469 l 1
 58 578 l 2
 58 635 69 668 95 695 c 0
 115 715 141 727 169 729 c 1
 169 683 l 1
 123 673 101 644 103 594 c 1
 169 594 l 1
 169 469 l 1
355 469 m 1
 244 469 l 1
 244 578 l 2
 244 635 255 668 281 695 c 0
 301 715 327 727 355 729 c 1
 355 683 l 1
 309 673 287 644 289 594 c 1
 355 594 l 1
 355 469 l 1
EndSplineSet
EndChar

StartChar: quotedblbase
Encoding: 8222 8222 156
Width: 410
Flags: MW
HStem: 0 125<59 125 59 170 59 243 243 309>
VStem: 59 111<-135 16 -89 16 0 16 16 125 -12 125> 243 111<-135 16 -89 16 0 16 16 125 -12.5 125>
LayerCount: 2
Fore
SplineSet
59 125 m 1
 170 125 l 1
 170 16 l 2
 170 -40 159 -74 133 -101 c 0
 113 -121 87 -133 59 -135 c 1
 59 -89 l 1
 106 -79 126 -50 125 0 c 1
 59 0 l 1
 59 125 l 1
243 125 m 1
 354 125 l 1
 354 16 l 2
 354 -41 343 -74 317 -101 c 0
 297 -121 271 -133 243 -135 c 1
 243 -89 l 1
 289 -79 311 -50 309 0 c 1
 243 0 l 1
 243 125 l 1
EndSplineSet
EndChar

StartChar: exclam
Encoding: 33 33 157
Width: 273
Flags: MW
HStem: 0 146<92 215 92 215>
VStem: 92 123<0 146 0 146 516 726>
LayerCount: 2
Fore
SplineSet
215 726 m 1
 215 516 l 1
 181 207 l 1
 126 207 l 1
 92 516 l 1
 92 726 l 1
 215 726 l 1
215 146 m 1
 215 0 l 1
 92 0 l 1
 92 146 l 1
 215 146 l 1
EndSplineSet
EndChar

StartChar: exclamdown
Encoding: 161 161 158
Width: 273
Flags: MW
HStem: 394 146<54 177 54 177>
VStem: 54 123<-186 24 -186 24 394 540>
LayerCount: 2
Fore
SplineSet
54 -186 m 1
 54 24 l 1
 88 333 l 1
 143 333 l 1
 177 24 l 1
 177 -186 l 1
 54 -186 l 1
54 394 m 1
 54 540 l 1
 177 540 l 1
 177 394 l 1
 54 394 l 1
EndSplineSet
EndChar

StartChar: question
Encoding: 63 63 159
Width: 501
Flags: MW
HStem: 0 146<192 315 192 315> 626 118<226 278.5>
VStem: 192 123<0 146 0 146> 340 115<488.5 544>
LayerCount: 2
Fore
SplineSet
302 201 m 1
 201 201 l 1
 198 286 217 331 282 399 c 1
 331 447 340 466 340 511 c 0
 340 577 303 626 254 626 c 0
 198 626 164 572 164 481 c 1
 52 481 l 1
 53 565 64 615 93 660 c 0
 129 716 183 744 251 744 c 0
 372 744 455 651 455 515 c 0
 455 429 434 387 357 320 c 1
 308 279 302 266 302 201 c 1
315 146 m 1
 315 0 l 1
 192 0 l 1
 192 146 l 1
 315 146 l 1
EndSplineSet
EndChar

StartChar: questiondown
Encoding: 191 191 160
Width: 501
Flags: MW
HStem: -204 118<219.5 272.5 219.5 281.5> 394 146<183 306 183 306>
VStem: 42 115<-3.5 51 -3.5 67.5> 183 123<394 540 394 540>
LayerCount: 2
Fore
SplineSet
196 339 m 1
 298 339 l 1
 300 255 281 208 216 141 c 1
 167 93 157 73 157 29 c 0
 157 -36 195 -86 244 -86 c 0
 301 -86 335 -31 335 59 c 1
 446 59 l 1
 445 -26 434 -76 405 -120 c 0
 369 -176 316 -204 247 -204 c 0
 126 -204 42 -110 42 25 c 0
 42 110 64 154 141 220 c 0
 190 261 196 274 196 339 c 1
183 394 m 1
 183 540 l 1
 306 540 l 1
 306 394 l 1
 183 394 l 1
EndSplineSet
EndChar

StartChar: guillemotright
Encoding: 187 187 161
Width: 456
Flags: W
LayerCount: 2
Fore
SplineSet
209 335 m 1
 209 220 l 1
 72 72 l 1
 72 189 l 1
 155 278 l 1
 72 367 l 1
 72 481 l 1
 209 335 l 1
379 335 m 1
 379 220 l 1
 242 72 l 1
 242 189 l 1
 325 278 l 1
 242 367 l 1
 242 481 l 1
 379 335 l 1
EndSplineSet
EndChar

StartChar: guillemotleft
Encoding: 171 171 162
Width: 456
Flags: W
LayerCount: 2
Fore
SplineSet
72 218 m 1
 72 332 l 1
 209 481 l 1
 209 364 l 1
 126 275 l 1
 209 186 l 1
 209 72 l 1
 72 218 l 1
247 218 m 1
 247 332 l 1
 384 481 l 1
 384 364 l 1
 301 275 l 1
 384 186 l 1
 384 72 l 1
 247 218 l 1
EndSplineSet
EndChar

StartChar: guilsinglright
Encoding: 8250 8250 163
Width: 273
Flags: W
LayerCount: 2
Fore
SplineSet
203 335 m 1
 203 220 l 1
 66 72 l 1
 66 189 l 1
 149 278 l 1
 66 367 l 1
 66 481 l 1
 203 335 l 1
EndSplineSet
EndChar

StartChar: guilsinglleft
Encoding: 8249 8249 164
Width: 273
Flags: W
LayerCount: 2
Fore
SplineSet
68 218 m 1
 68 332 l 1
 205 481 l 1
 205 364 l 1
 122 275 l 1
 205 186 l 1
 205 72 l 1
 68 218 l 1
EndSplineSet
EndChar

StartChar: slash
Encoding: 47 47 165
Width: 228
Flags: MW
HStem: -14 20
LayerCount: 2
Fore
SplineSet
171 714 m 1
 226 714 l 1
 57 -14 l 1
 2 -14 l 1
 171 714 l 1
EndSplineSet
EndChar

StartChar: hyphen
Encoding: 45 45 166
Width: 273
Flags: MW
HStem: 207 135<21 244 21 244>
LayerCount: 2
Fore
SplineSet
244 342 m 1
 244 207 l 1
 21 207 l 1
 21 342 l 1
 244 342 l 1
EndSplineSet
EndChar

StartChar: sfthyphen
Encoding: 173 173 167
Width: 273
Flags: MW
HStem: 207 135<21 244 21 244>
LayerCount: 2
Fore
SplineSet
244 342 m 1
 244 207 l 1
 21 207 l 1
 21 342 l 1
 244 342 l 1
EndSplineSet
EndChar

StartChar: endash
Encoding: 8211 8211 168
Width: 456
Flags: MW
HStem: 207 104<-7 457 -7 457>
LayerCount: 2
Fore
SplineSet
457 311 m 1
 457 207 l 1
 -7 207 l 1
 -7 311 l 1
 457 311 l 1
EndSplineSet
EndChar

StartChar: emdash
Encoding: 8212 8212 169
Width: 820
Flags: MW
HStem: 207 104<-6 822 -6 822>
LayerCount: 2
Fore
SplineSet
822 311 m 1
 822 207 l 1
 -6 207 l 1
 -6 311 l 1
 822 311 l 1
EndSplineSet
EndChar

StartChar: parenleft
Encoding: 40 40 170
Width: 273
Flags: MW
HStem: 709 20<167 249 249 249>
VStem: 33 101<191 338.5 191 341.5>
LayerCount: 2
Fore
SplineSet
167 729 m 1
 249 729 l 1
 162 525 134 412 134 265 c 0
 134 117 161 7 249 -200 c 1
 167 -200 l 1
 74 -30 33 111 33 265 c 0
 33 418 74 559 167 729 c 1
EndSplineSet
EndChar

StartChar: parenright
Encoding: 41 41 171
Width: 273
Flags: MW
HStem: 709 20<18 100 100 100>
VStem: 133 101<191 337.5>
LayerCount: 2
Fore
SplineSet
100 -200 m 1
 18 -200 l 1
 105 4 133 118 133 264 c 0
 133 411 105 523 18 729 c 1
 100 729 l 1
 194 555 234 417 234 264 c 0
 234 112 194 -26 100 -200 c 1
EndSplineSet
EndChar

StartChar: bracketleft
Encoding: 91 91 172
Width: 273
Flags: MW
HStem: -200 102<160 252 160 252> 627 102<160 252 160 160>
VStem: 54 106<-98 627 -98 729 -98 729>
LayerCount: 2
Fore
SplineSet
252 729 m 1
 252 627 l 1
 160 627 l 1
 160 -98 l 1
 252 -98 l 1
 252 -200 l 1
 54 -200 l 1
 54 729 l 1
 252 729 l 1
EndSplineSet
EndChar

StartChar: bracketright
Encoding: 93 93 173
Width: 273
Flags: MW
HStem: -200 102<15 107 15 107 15 213> 627 102<15 107 15 213>
VStem: 107 106<-98 627 627 627>
LayerCount: 2
Fore
SplineSet
15 -200 m 1
 15 -98 l 1
 107 -98 l 1
 107 627 l 1
 15 627 l 1
 15 729 l 1
 213 729 l 1
 213 -200 l 1
 15 -200 l 1
EndSplineSet
EndChar

StartChar: ampersand
Encoding: 38 38 174
Width: 592
Flags: W
HStem: -23 116<218.5 253.5 218.5 267.5> 614 109<247.5 277>
VStem: 45 109<179.5 226.5 179.5 240> 106 108<554 580.5 554 603> 309 98<539 575.5>
LayerCount: 2
Fore
SplineSet
431 373 m 1xd8
 524 373 l 1
 524 362 l 1
 524 357 l 2
 524 284 503 208 468 154 c 1
 569 0 l 1
 437 0 l 1
 399 56 l 1
 331 -6 296 -23 239 -23 c 0
 122 -23 45 63 45 193 c 0xe0
 45 287 77 339 174 401 c 1
 170 406 167 411 164 417 c 2
 141 450 l 2
 118 483 106 520 106 556 c 0
 106 650 173 723 261 723 c 0
 350 723 407 662 407 569 c 0
 407 495 385 453 312 392 c 1
 407 248 l 1
 426 292 430 314 431 373 c 1xd8
228 319 m 1
 190 290 l 2
 166 271 154 243 154 210 c 0
 154 149 196 93 241 93 c 0
 266 93 301 113 340 148 c 1
 228 319 l 1
260 470 m 1xd8
 293 492 309 521 309 557 c 0
 309 594 292 614 262 614 c 0
 233 614 214 595 214 566 c 0
 214 542 219 531 260 470 c 1xd8
EndSplineSet
EndChar

StartChar: section
Encoding: 167 167 175
Width: 456
Flags: W
HStem: -201 111<204.5 245.5 204.5 279.5> 621 102<204 239>
VStem: 27 97<301.5 311> 52 115<556 585 556 601> 290 115<-47 -20.5> 327 98<228.5 247.5>
LayerCount: 2
Fore
SplineSet
388 544 m 1xd0
 284 544 l 1
 278 598 258 621 220 621 c 0
 188 621 167 600 167 570 c 0
 167 542 182 524 241 485 c 2
 345 415 l 2
 399 378 425 329 425 262 c 0xd4
 425 195 402 155 348 124 c 1
 387 90 405 47 405 -10 c 0
 405 -126 334 -201 225 -201 c 0
 112 -201 54 -133 53 0 c 1
 161 0 l 1
 161 -10 l 1
 163 -67 182 -90 227 -90 c 0
 264 -90 290 -65 290 -29 c 0
 290 -12 284 5 275 16 c 0
 267 26 267 26 232 49 c 1
 92 149 l 2
 50 179 27 226 27 281 c 0xe8
 27 341 43 373 103 428 c 1
 84 450 79 456 74 465 c 0
 61 487 52 521 52 551 c 0
 52 651 124 723 224 723 c 0
 290 723 343 693 369 642 c 1
 381 616 387 590 388 544 c 1xd0
276 306 m 2
 159 382 l 1
 134 364 124 345 124 317 c 0xe0
 124 286 134 270 168 247 c 2
 288 167 l 1
 316 191 327 210 327 232 c 0
 327 263 314 281 276 306 c 2
EndSplineSet
EndChar

StartChar: dagger
Encoding: 8224 8224 176
Width: 456
Flags: MW
HStem: 369 116<26 173 26 173 283 429 26 283>
VStem: 173 110<-194 369 -194 369 485 709>
LayerCount: 2
Fore
SplineSet
429 485 m 1
 429 369 l 1
 283 369 l 1
 283 -194 l 1
 173 -194 l 1
 173 369 l 1
 26 369 l 1
 26 485 l 1
 173 485 l 1
 173 709 l 1
 283 709 l 1
 283 485 l 1
 429 485 l 1
EndSplineSet
EndChar

StartChar: daggerdbl
Encoding: 8225 8225 177
Width: 456
Flags: MW
HStem: 30 116<23 170 23 170 280 426 23 280> 369 116<23 170 23 170 280 426 23 280>
VStem: 170 110<-194 30 -194 30 146 369 485 709>
LayerCount: 2
Fore
SplineSet
426 485 m 1
 426 369 l 1
 280 369 l 1
 280 146 l 1
 426 146 l 1
 426 30 l 1
 280 30 l 1
 280 -194 l 1
 170 -194 l 1
 170 30 l 1
 23 30 l 1
 23 146 l 1
 170 146 l 1
 170 369 l 1
 23 369 l 1
 23 485 l 1
 170 485 l 1
 170 709 l 1
 280 709 l 1
 280 485 l 1
 426 485 l 1
EndSplineSet
EndChar

StartChar: asterisk
Encoding: 42 42 178
Width: 319
Flags: MW
HStem: 709 20<126 185 185 185>
VStem: 126 59<613 729 613 729>
LayerCount: 2
Fore
SplineSet
108 544 m 1
 19 580 l 1
 37 649 l 1
 126 613 l 1
 126 729 l 1
 185 729 l 1
 185 613 l 1
 274 649 l 1
 292 579 l 1
 203 544 l 1
 258 450 l 1
 211 407 l 1
 155 501 l 1
 100 407 l 1
 53 450 l 1
 108 544 l 1
EndSplineSet
EndChar

StartChar: quotesingle
Encoding: 39 39 179
Width: 195
Flags: MW
HStem: 709 20<41 154 154 154>
VStem: 41 113<599 729 599 729>
LayerCount: 2
Fore
SplineSet
154 729 m 1
 154 599 l 1
 119 470 l 1
 74 470 l 1
 41 599 l 1
 41 729 l 1
 154 729 l 1
EndSplineSet
EndChar

StartChar: quotedbl
Encoding: 34 34 180
Width: 389
Flags: MW
HStem: 709 20<41 154 154 154 235 348 348 348>
VStem: 41 113<599 729 599 729> 235 113<599 729 599 729>
LayerCount: 2
Fore
SplineSet
154 729 m 1
 154 599 l 1
 119 470 l 1
 74 470 l 1
 41 599 l 1
 41 729 l 1
 154 729 l 1
348 729 m 1
 348 599 l 1
 313 470 l 1
 268 470 l 1
 235 599 l 1
 235 729 l 1
 348 729 l 1
EndSplineSet
EndChar

StartChar: at
Encoding: 64 64 181
Width: 800
Flags: W
HStem: -64 102<364 424.5 364 427> 115 106<348.5 364> 116 106<549 570.5 549 581> 478 92<388.5 426.5 380.5 431.5> 682 102<372 451.5>
VStem: 34 97<281.5 370.5 281.5 379.5> 210 97<282.5 320.5> 668 91<397 458>
LayerCount: 2
Fore
SplineSet
507 561 m 1x57
 599 561 l 1
 537 282 l 2
 531 259 531 259 531 251 c 0
 531 232 540 222 558 222 c 0
 583 222 611 245 634 287 c 1
 657 326 668 371 668 423 c 0
 668 493 646 549 597 602 c 0
 546 656 488 682 415 682 c 0
 329 682 258 644 206 571 c 0
 158 502 131 415 131 326 c 0
 131 237 160 164 217 110 c 0
 266 64 331 38 397 38 c 0
 452 38 505 51 559 80 c 1
 588 -16 l 1
 581 -19 580 -20 567 -27 c 0
 524 -50 460 -64 394 -64 c 0
 296 -64 218 -34 153 28 c 0
 78 100 34 208 34 323 c 0
 34 436 76 555 146 646 c 0
 216 736 312 784 418 784 c 0
 518 784 604 743 671 664 c 0
 732 592 759 512 759 408 c 0
 759 324 737 255 690 194 c 0
 651 143 605 116 557 116 c 0xbf
 512 116 476 143 457 191 c 1
 424 142 384 115 344 115 c 0
 271 115 210 194 210 288 c 0
 210 353 232 426 269 484 c 0
 303 538 355 570 406 570 c 0
 447 570 472 555 498 514 c 1
 507 561 l 1x57
415 478 m 0
 362 478 307 392 307 307 c 0
 307 258 332 221 365 221 c 0x57
 414 221 469 314 469 398 c 0
 469 447 448 478 415 478 c 0
EndSplineSet
EndChar

StartChar: numbersign
Encoding: 35 35 182
Width: 456
Flags: MW
HStem: 172 99<3 67 3 82 3 153 169 237 339 421> 424 99<26 107 26 123 26 194 209 278 380 454>
LayerCount: 2
Fore
SplineSet
120 -32 m 1
 34 -32 l 1
 67 172 l 1
 3 172 l 1
 3 271 l 1
 82 271 l 1
 107 424 l 1
 26 424 l 1
 26 523 l 1
 123 523 l 1
 151 697 l 1
 237 697 l 1
 209 523 l 1
 294 523 l 1
 322 697 l 1
 408 697 l 1
 380 523 l 1
 454 523 l 1
 454 424 l 1
 364 424 l 1
 339 271 l 1
 421 271 l 1
 421 172 l 1
 324 172 l 1
 291 -32 l 1
 204 -32 l 1
 237 172 l 1
 153 172 l 1
 120 -32 l 1
169 271 m 1
 253 271 l 1
 278 424 l 1
 194 424 l 1
 169 271 l 1
EndSplineSet
EndChar

StartChar: degree
Encoding: 176 176 183
Width: 328
Flags: MW
HStem: 383 63<144 183.5 144 198> 623 63<144.5 184>
VStem: 40 52<510.5 558.5 510.5 576.5> 236 52<510 559.5>
LayerCount: 2
Fore
SplineSet
164 686 m 0
 233 686 288 619 288 535 c 0
 288 449 233 383 163 383 c 0
 96 383 40 452 40 535 c 0
 40 618 96 686 164 686 c 0
164 623 m 0
 125 623 92 583 92 534 c 0
 92 487 125 446 163 446 c 0
 204 446 236 485 236 535 c 0
 236 584 204 623 164 623 c 0
EndSplineSet
EndChar

StartChar: plus
Encoding: 43 43 184
Width: 479
Flags: MW
HStem: -10 20 172 119<41 190 41 190 288 437 41 288>
VStem: 190 98<-10 172 -10 172 291 473>
LayerCount: 2
Fore
SplineSet
437 291 m 1
 437 172 l 1
 288 172 l 1
 288 -10 l 1
 190 -10 l 1
 190 172 l 1
 41 172 l 1
 41 291 l 1
 190 291 l 1
 190 473 l 1
 288 473 l 1
 288 291 l 1
 437 291 l 1
EndSplineSet
EndChar

StartChar: minus
Encoding: 8722 8722 185
Width: 479
Flags: MW
HStem: 172 119<33 446 33 446>
LayerCount: 2
Fore
SplineSet
446 291 m 1
 446 172 l 1
 33 172 l 1
 33 291 l 1
 446 291 l 1
EndSplineSet
EndChar

StartChar: multiply
Encoding: 215 215 186
Width: 479
Flags: W
LayerCount: 2
Fore
SplineSet
345 444 m 1
 414 360 l 1
 308 231 l 1
 414 102 l 1
 345 18 l 1
 239 147 l 1
 135 19 l 1
 66 103 l 1
 170 231 l 1
 65 359 l 1
 134 444 l 1
 239 315 l 1
 345 444 l 1
EndSplineSet
EndChar

StartChar: divide
Encoding: 247 247 187
Width: 479
Flags: MW
HStem: -11 123<189 291 189 291> 172 119<41 438 41 438> 351 123<189 291 189 291>
VStem: 189 102<-11 112 -11 112 351 474>
LayerCount: 2
Fore
SplineSet
438 291 m 1
 438 172 l 1
 41 172 l 1
 41 291 l 1
 438 291 l 1
189 474 m 1
 291 474 l 1
 291 351 l 1
 189 351 l 1
 189 474 l 1
189 112 m 1
 291 112 l 1
 291 -11 l 1
 189 -11 l 1
 189 112 l 1
EndSplineSet
EndChar

StartChar: equal
Encoding: 61 61 188
Width: 479
Flags: MW
HStem: 52 119<41 438 41 438> 292 119<41 438 41 438>
LayerCount: 2
Fore
SplineSet
438 411 m 1
 438 292 l 1
 41 292 l 1
 41 411 l 1
 438 411 l 1
438 171 m 1
 438 52 l 1
 41 52 l 1
 41 171 l 1
 438 171 l 1
EndSplineSet
EndChar

StartChar: trademark
Encoding: 8482 8482 189
Width: 820
Flags: MW
HStem: 651 78<58 171 58 357 249 357 249 249>
VStem: 171 78<273 651 273 651> 398 75<273 622 273 729> 687 75<273 622 622 622>
LayerCount: 2
Fore
SplineSet
249 651 m 1
 249 273 l 1
 171 273 l 1
 171 651 l 1
 58 651 l 1
 58 729 l 1
 357 729 l 1
 357 651 l 1
 249 651 l 1
619 273 m 1
 542 273 l 1
 473 622 l 1
 473 273 l 1
 398 273 l 1
 398 729 l 1
 511 729 l 1
 581 379 l 1
 649 729 l 1
 762 729 l 1
 762 273 l 1
 687 273 l 1
 687 622 l 1
 619 273 l 1
EndSplineSet
EndChar

StartChar: paragraph
Encoding: 182 182 190
Width: 456
Flags: MW
HStem: 657 72<267 319 267 267 399 434 399 399>
VStem: 187 80<-191 267 267 267> 319 80<-191 657 -191 657>
LayerCount: 2
Fore
SplineSet
434 729 m 1
 434 657 l 1
 399 657 l 1
 399 -191 l 1
 319 -191 l 1
 319 657 l 1
 267 657 l 1
 267 -191 l 1
 187 -191 l 1
 187 267 l 1
 86 273 17 366 17 495 c 0
 17 550 32 605 58 650 c 0
 89 702 133 729 186 729 c 2
 434 729 l 1
EndSplineSet
EndChar

StartChar: currency
Encoding: 164 164 191
Width: 456
Flags: MW
HStem: 82 111<218.5 248.5> 396 110<215.5 244.5 215.5 251.5> 522 20<87 87>
VStem: 57 88<274 311.5> 312 88<275.5 314 275.5 321>
LayerCount: 2
Fore
SplineSet
317 477 m 1
 368 538 l 1
 431 461 l 1
 379 397 l 1
 394 362 400 333 400 295 c 0
 400 256 393 221 378 188 c 1
 431 124 l 1
 368 47 l 1
 315 111 l 1
 281 88 263 82 234 82 c 0
 203 82 168 93 144 111 c 1
 89 45 l 1
 25 122 l 1
 80 189 l 1
 63 227 57 255 57 293 c 0
 57 330 65 366 79 397 c 1
 24 464 l 1
 87 542 l 1
 142 476 l 1
 168 495 201 506 230 506 c 0
 259 506 294 494 317 477 c 1
230 396 m 0
 184 396 145 349 145 294 c 0
 145 239 183 193 229 193 c 0
 275 193 312 239 312 294 c 0
 312 348 273 396 230 396 c 0
EndSplineSet
EndChar

StartChar: quotesinglbase
Encoding: 8218 8218 192
Width: 228
Flags: MW
HStem: 0 125<54 120 54 165>
VStem: 54 111<-135 16 -89 16 0 16 16 125 -12 125>
LayerCount: 2
Fore
SplineSet
54 125 m 1
 165 125 l 1
 165 16 l 2
 165 -40 154 -74 128 -101 c 0
 108 -121 82 -133 54 -135 c 1
 54 -89 l 1
 101 -79 121 -50 120 0 c 1
 54 0 l 1
 54 125 l 1
EndSplineSet
EndChar

StartChar: quoteright
Encoding: 8217 8217 193
Width: 228
Flags: MW
HStem: 604 125<54 120 54 165>
VStem: 54 111<469 620 515 620 604 620 620 729 592 729>
LayerCount: 2
Fore
SplineSet
54 729 m 1
 165 729 l 1
 165 620 l 2
 165 564 154 530 128 503 c 0
 108 483 82 471 54 469 c 1
 54 515 l 1
 101 525 121 554 120 604 c 1
 54 604 l 1
 54 729 l 1
EndSplineSet
EndChar

StartChar: braceleft
Encoding: 123 123 194
Width: 319
Flags: MW
HStem: 709 20<197 260 260 260>
VStem: 96 96<-60 -36 -36 150 150 159 378 574>
LayerCount: 2
Fore
SplineSet
260 729 m 1
 260 630 l 1
 229 630 l 2
 203 630 192 613 192 574 c 2
 192 378 l 2
 192 305 174 280 112 269 c 1
 174 257 192 232 192 159 c 2
 192 -36 l 2
 192 -85 201 -101 229 -101 c 2
 260 -101 l 1
 260 -200 l 1
 197 -200 l 2
 138 -200 96 -142 96 -60 c 2
 96 150 l 2
 96 190 89 207 70 217 c 0
 61 222 56 222 33 222 c 1
 30 223 l 1
 30 315 l 1
 33 315 l 1
 43 315 l 1
 80 316 96 335 96 378 c 2
 96 589 l 2
 96 671 138 729 197 729 c 2
 260 729 l 1
EndSplineSet
EndChar

StartChar: braceright
Encoding: 125 125 195
Width: 319
Flags: MW
HStem: 709 20<59 121 121 150.5>
VStem: 126 96<-45 151 370 379 379 565 565 589>
LayerCount: 2
Fore
SplineSet
59 -200 m 1
 59 -101 l 1
 89 -101 l 2
 115 -101 126 -84 126 -45 c 2
 126 151 l 2
 126 224 144 249 206 260 c 1
 144 272 126 297 126 370 c 2
 126 565 l 2
 126 614 117 630 89 630 c 2
 59 630 l 1
 59 729 l 1
 121 729 l 2
 180 729 222 671 222 589 c 2
 222 379 l 2
 222 338 229 322 249 312 c 0
 258 307 263 307 286 307 c 1
 289 306 l 1
 289 214 l 1
 286 214 l 1
 275 214 l 1
 238 213 222 194 222 151 c 2
 222 -60 l 2
 222 -142 180 -200 121 -200 c 2
 59 -200 l 1
EndSplineSet
EndChar

StartChar: ordfeminine
Encoding: 170 170 196
Width: 303
Flags: MW
HStem: 262 78<30 263 30 263> 386 68<119 119.5> 661 68<129 159.5>
VStem: 25 69<480.5 506 480.5 514>
LayerCount: 2
Fore
SplineSet
263 340 m 1
 263 262 l 1
 30 262 l 1
 30 340 l 1
 263 340 l 1
269 410 m 1
 269 400 l 1
 194 400 l 1
 188 410 186 415 186 432 c 1
 162 402 134 386 105 386 c 0
 56 386 25 425 25 484 c 0
 25 544 49 576 103 587 c 2
 130 593 l 2
 165 600 165 600 174 606 c 0
 181 611 186 621 186 630 c 0
 186 651 173 661 146 661 c 0
 112 661 100 650 97 617 c 1
 33 617 l 1
 34 691 71 729 145 729 c 0
 216 729 253 695 253 629 c 2
 253 450 l 2
 253 433 256 425 269 410 c 1
186 530 m 2
 186 553 l 1
 178 548 174 547 157 543 c 2
 133 537 l 2
 104 530 94 519 94 493 c 0
 94 468 107 454 131 454 c 0
 166 454 186 482 186 530 c 2
EndSplineSet
EndChar

StartChar: ordmasculine
Encoding: 186 186 197
Width: 299
Flags: MW
HStem: 262 78<27 274 27 274> 386 68<131.5 169 131.5 190.5> 661 68<131 169.5>
VStem: 19 69<526.5 589 526.5 611> 212 69<525 589>
LayerCount: 2
Fore
SplineSet
274 340 m 1
 274 262 l 1
 27 262 l 1
 27 340 l 1
 274 340 l 1
150 729 m 0
 233 729 281 666 281 555 c 0
 281 450 231 386 150 386 c 0
 69 386 19 451 19 558 c 0
 19 664 69 729 150 729 c 0
150 661 m 0
 112 661 88 620 88 558 c 0
 88 495 113 454 150 454 c 0
 188 454 212 494 212 556 c 0
 212 622 189 661 150 661 c 0
EndSplineSet
EndChar

StartChar: plusminus
Encoding: 177 177 198
Width: 479
Flags: MW
HStem: -16 119<46 432 46 432> 313 119<46 190 46 190 288 432 46 288>
VStem: 190 98<137 313 137 313 432 608>
LayerCount: 2
Fore
SplineSet
432 103 m 1
 432 -16 l 1
 46 -16 l 1
 46 103 l 1
 432 103 l 1
432 432 m 1
 432 313 l 1
 288 313 l 1
 288 137 l 1
 190 137 l 1
 190 313 l 1
 46 313 l 1
 46 432 l 1
 190 432 l 1
 190 608 l 1
 288 608 l 1
 288 432 l 1
 432 432 l 1
EndSplineSet
EndChar

StartChar: onehalf
Encoding: 189 189 199
Width: 684
Flags: MW
HStem: -20 20 360 74<533 564.5>
VStem: 103 78<284 573 573 573> 424 75<290 312 287.5 337.5> 598 78<274.5 317>
LayerCount: 2
Fore
SplineSet
103 573 m 1
 15 573 l 1
 15 634 l 1
 80 634 117 658 128 709 c 1
 181 709 l 1
 181 284 l 1
 103 284 l 1
 103 573 l 1
464 715 m 1
 535 715 l 1
 188 -20 l 1
 117 -20 l 1
 464 715 l 1
674 81 m 1
 674 0 l 1
 420 0 l 1
 422 82 441 119 505 169 c 1
 586 236 598 252 598 297 c 0
 598 337 580 360 549 360 c 0
 517 360 499 335 499 289 c 0
 499 286 499 280 500 273 c 1
 425 273 l 1
 424 281 424 288 424 292 c 0
 424 383 470 434 552 434 c 0
 631 434 676 386 676 300 c 0
 676 241 657 208 592 154 c 0
 564 130 548 116 543 110 c 0
 536 103 531 97 521 81 c 1
 674 81 l 1
EndSplineSet
EndChar

StartChar: onequarter
Encoding: 188 188 200
Width: 684
Flags: MW
HStem: -20 20 93 75<475 561 475 561 415 561 639 677>
VStem: 101 78<284 573 573 573> 561 78<0 93 0 93 168 332 332 332>
LayerCount: 2
Fore
SplineSet
101 573 m 1
 13 573 l 1
 13 634 l 1
 78 634 115 658 126 709 c 1
 179 709 l 1
 179 284 l 1
 101 284 l 1
 101 573 l 1
466 715 m 1
 538 715 l 1
 191 -20 l 1
 120 -20 l 1
 466 715 l 1
677 168 m 1
 677 93 l 1
 639 93 l 1
 639 0 l 1
 561 0 l 1
 561 93 l 1
 415 93 l 1
 415 167 l 1
 549 425 l 1
 639 425 l 1
 639 168 l 1
 677 168 l 1
561 168 m 1
 561 332 l 1
 475 168 l 1
 561 168 l 1
EndSplineSet
EndChar

StartChar: threequarters
Encoding: 190 190 201
Width: 684
Flags: W
HStem: -20 20 93 75<482 569 482 569 422 569 647 685> 271 77<110.5 142.5 110.5 166> 645 73<114 137>
VStem: 167 78<582 607.5> 179 78<390.5 427.5> 569 78<0 93 0 93 168 332 332 332>
LayerCount: 2
Fore
SplineSet
97 471 m 1xf4
 97 533 l 1
 105 533 l 2
 146 533 167 553 167 591 c 0
 167 624 150 645 124 645 c 0
 104 645 88 633 82 615 c 0
 79 605 77 593 77 571 c 1
 5 571 l 1
 7 622 13 647 30 671 c 0
 51 702 85 718 127 718 c 0
 199 718 245 672 245 601 c 0xfa
 245 563 231 534 203 512 c 1
 239 490 257 456 257 409 c 0
 257 325 206 271 126 271 c 0
 46 271 -1 324 0 414 c 1
 75 414 l 1
 77 370 94 348 127 348 c 0
 158 348 179 373 179 408 c 0
 179 447 151 475 115 471 c 1
 110 471 l 1
 97 471 l 1xf4
500 715 m 1
 572 715 l 1
 225 -20 l 1
 153 -20 l 1
 500 715 l 1
685 168 m 1
 685 93 l 1
 647 93 l 1
 647 0 l 1
 569 0 l 1
 569 93 l 1
 422 93 l 1
 422 167 l 1
 558 425 l 1
 647 425 l 1
 647 168 l 1
 685 168 l 1
569 168 m 1
 569 332 l 1
 482 168 l 1
 569 168 l 1
EndSplineSet
EndChar

StartChar: fraction
Encoding: 8260 8260 202
Width: 137
Flags: MW
HStem: -20 20
LayerCount: 2
Fore
SplineSet
205 715 m 1
 276 715 l 1
 -71 -20 l 1
 -142 -20 l 1
 205 715 l 1
EndSplineSet
EndChar

StartChar: percent
Encoding: 37 37 203
Width: 729
Flags: W
HStem: -20 20 -13 98<538.5 575 538.5 598> 253 99<538 576> 337 98<150 187.5 150 210> 602 99<150 188>
VStem: 18 81<496 541.5 496 569.5> 239 81<496 541> 406 81<146.5 191.5 146.5 220> 627 81<146.5 191>
LayerCount: 2
Fore
SplineSet
168 701 m 0x9f80
 253 701 320 620 320 517 c 0
 320 419 251 337 169 337 c 0
 85 337 18 418 18 519 c 0
 18 620 85 701 168 701 c 0x9f80
169 602 m 0
 131 602 99 564 99 519 c 0
 99 473 131 435 169 435 c 0
 206 435 239 474 239 518 c 0
 239 564 207 602 169 602 c 0
497 709 m 1
 560 709 l 1
 235 -20 l 1
 172 -20 l 1
 497 709 l 1
557 352 m 0x6780
 641 352 708 270 708 167 c 0
 708 70 639 -13 557 -13 c 0
 474 -13 406 70 406 170 c 0
 406 270 474 352 557 352 c 0x6780
557 253 m 0
 519 253 487 214 487 169 c 0
 487 124 520 85 557 85 c 0
 593 85 627 125 627 168 c 0
 627 214 595 253 557 253 c 0
EndSplineSet
EndChar

StartChar: perthousand
Encoding: 8240 8240 204
Width: 820
Flags: MW
HStem: -22 77<371 402.5 371 420.5 673 705> 194 80<370.5 403 673 705.5> 443 77<115.5 147 115.5 165> 659 80<115 147.5>
VStem: 9 65<570.5 609.5 570.5 632> 189 65<570 609> 264 65<105.5 144 105.5 166.5> 444 65<105 144> 567 65<105.5 144.5 105.5 167> 747 65<105 144>
LayerCount: 2
Fore
SplineSet
131 739 m 0
 200 739 254 673 254 589 c 0
 254 509 199 443 131 443 c 0
 64 443 9 509 9 591 c 0
 9 673 64 739 131 739 c 0
131 659 m 0
 99 659 74 629 74 590 c 0
 74 551 100 520 131 520 c 0
 163 520 189 551 189 589 c 0
 189 629 164 659 131 659 c 0
407 738 m 1
 462 738 l 1
 116 -21 l 1
 62 -21 l 1
 407 738 l 1
386 274 m 0
 455 274 509 208 509 124 c 0
 509 43 454 -22 387 -22 c 0
 319 -22 264 44 264 126 c 0
 264 207 319 274 386 274 c 0
387 194 m 0
 354 194 329 163 329 125 c 0
 329 86 355 55 387 55 c 0
 418 55 444 86 444 124 c 0
 444 164 419 194 387 194 c 0
689 274 m 0
 758 274 812 208 812 124 c 0
 812 44 757 -22 689 -22 c 0
 621 -22 567 43 567 126 c 0
 567 208 622 274 689 274 c 0
689 194 m 0
 657 194 632 164 632 125 c 0
 632 86 657 55 689 55 c 0
 721 55 747 86 747 124 c 0
 747 164 722 194 689 194 c 0
EndSplineSet
EndChar

StartChar: backslash
Encoding: 92 92 205
Width: 228
Flags: MW
HStem: -14 20
LayerCount: 2
Fore
SplineSet
45 714 m 1
 237 -14 l 1
 182 -14 l 1
 -10 714 l 1
 45 714 l 1
EndSplineSet
EndChar

StartChar: dieresis
Encoding: 168 168 206
Width: 273
Flags: MW
HStem: 621 122<15 105 15 105 15 168 168 258>
VStem: 15 90<621 743 621 743> 168 90<621 743 621 743>
LayerCount: 2
Fore
SplineSet
105 743 m 1
 105 621 l 1
 15 621 l 1
 15 743 l 1
 105 743 l 1
258 743 m 1
 258 621 l 1
 168 621 l 1
 168 743 l 1
 258 743 l 1
EndSplineSet
EndChar

StartChar: dotaccent
Encoding: 729 729 207
Width: 273
Flags: MW
HStem: 621 122<92 182 92 182>
VStem: 92 90<621 743 621 743>
LayerCount: 2
Fore
SplineSet
182 743 m 1
 182 621 l 1
 92 621 l 1
 92 743 l 1
 182 743 l 1
EndSplineSet
EndChar

StartChar: ring
Encoding: 730 730 208
Width: 273
Flags: MW
HStem: 590 48<128 146 128 157> 722 48<128 147>
VStem: 63 39<669 691.5 669 705.5> 172 39<669 691>
LayerCount: 2
Fore
SplineSet
137 770 m 0
 179 770 211 730 211 679 c 0
 211 631 177 590 137 590 c 0
 96 590 63 630 63 680 c 0
 63 731 95 770 137 770 c 0
138 722 m 0
 118 722 102 703 102 680 c 0
 102 658 119 638 137 638 c 0
 155 638 172 658 172 680 c 0
 172 702 156 722 138 722 c 0
EndSplineSet
EndChar

StartChar: acute
Encoding: 180 180 209
Width: 273
Flags: W
LayerCount: 2
Fore
SplineSet
260 757 m 1
 156 607 l 1
 99 607 l 1
 156 757 l 1
 260 757 l 1
EndSplineSet
EndChar

StartChar: grave
Encoding: 96 96 210
Width: 273
Flags: W
LayerCount: 2
Fore
SplineSet
14 757 m 1
 117 757 l 1
 175 607 l 1
 117 607 l 1
 14 757 l 1
EndSplineSet
EndChar

StartChar: circumflex
Encoding: 710 710 211
Width: 273
Flags: W
LayerCount: 2
Fore
SplineSet
95 757 m 1
 183 757 l 1
 268 607 l 1
 204 607 l 1
 137 707 l 1
 70 607 l 1
 7 607 l 1
 95 757 l 1
EndSplineSet
EndChar

StartChar: caron
Encoding: 711 711 212
Width: 273
Flags: W
LayerCount: 2
Fore
SplineSet
180 607 m 1
 91 607 l 1
 7 757 l 1
 71 757 l 1
 138 660 l 1
 205 757 l 1
 268 757 l 1
 180 607 l 1
EndSplineSet
EndChar

StartChar: breve
Encoding: 728 728 213
Width: 273
Flags: MW
HStem: 605 77<118.5 156> 728 20<29 75 75 75 200 245 245 245>
LayerCount: 2
Fore
SplineSet
200 748 m 1
 245 748 l 1
 244 704 239 682 225 658 c 0
 204 622 175 605 137 605 c 0
 75 605 29 661 29 738 c 2
 29 748 l 1
 75 748 l 1
 80 702 99 682 138 682 c 0
 175 682 192 700 200 748 c 1
EndSplineSet
EndChar

StartChar: tilde
Encoding: 732 732 214
Width: 273
Flags: W
HStem: 666 79<67.5 77.5 47.5 81.5> 729 20<232 283 283 283>
LayerCount: 2
Fore
SplineSet
232 749 m 1x40
 283 749 l 1x40
 280 663 254 622 206 622 c 0
 192 622 179 625 161 634 c 2
 102 660 l 2
 92 664 86 666 77 666 c 0
 58 666 49 653 44 621 c 1
 -7 621 l 1
 -4 698 25 745 70 745 c 0x80
 85 745 88 744 116 732 c 2
 174 707 l 2
 179 705 194 701 198 701 c 0
 219 699 229 713 232 749 c 1x40
EndSplineSet
EndChar

StartChar: hungarumlaut
Encoding: 733 733 215
Width: 273
Flags: W
LayerCount: 2
Fore
SplineSet
125 757 m 1
 21 610 l 1
 -36 610 l 1
 21 757 l 1
 125 757 l 1
279 757 m 1
 175 610 l 1
 118 610 l 1
 175 757 l 1
 279 757 l 1
EndSplineSet
EndChar

StartChar: cedilla
Encoding: 184 184 216
Width: 273
Flags: MW
HStem: -220 50<116.5 136.5 111 170>
VStem: 170 71<-140.5 -118>
LayerCount: 2
Fore
SplineSet
133 0 m 1
 168 0 l 1
 144 -63 l 1
 155 -58 168 -56 178 -56 c 0
 217 -56 241 -83 241 -127 c 0
 241 -188 204 -220 136 -220 c 0
 97 -220 76 -215 22 -192 c 1
 38 -140 l 1
 83 -164 99 -170 123 -170 c 0
 150 -170 170 -152 170 -129 c 0
 170 -107 154 -94 128 -94 c 0
 112 -94 104 -96 88 -106 c 1
 133 0 l 1
EndSplineSet
EndChar

StartChar: ogonek
Encoding: 731 731 217
Width: 273
Flags: MW
HStem: -234 51<152.5 165.5>
VStem: 37 74<-149.5 -109>
LayerCount: 2
Fore
SplineSet
139 0 m 1
 200 0 l 1
 132 -52 111 -82 111 -133 c 0
 111 -166 132 -183 173 -183 c 0
 186 -183 207 -181 220 -177 c 1
 220 -224 l 1
 199 -230 176 -234 155 -234 c 0
 137 -234 111 -229 92 -222 c 0
 56 -207 37 -179 37 -139 c 0
 37 -79 75 -28 139 0 c 1
EndSplineSet
EndChar

StartChar: macron
Encoding: 175 175 218
Width: 273
Flags: MW
HStem: 640 79<13 258 13 258>
LayerCount: 2
Fore
SplineSet
258 719 m 1
 258 640 l 1
 13 640 l 1
 13 719 l 1
 258 719 l 1
EndSplineSet
EndChar

StartChar: copyright
Encoding: 169 169 219
Width: 604
Flags: MW
HStem: -22 72<232 369.5 232 387> 128 83<271 323.5 271 344.5> 509 83<273 324.5> 671 72<233 370.5>
VStem: -12 64<276.5 446 276.5 466.5> 133 76<311.5 406 311.5 431.5> 551 64<274.5 447>
LayerCount: 2
Fore
SplineSet
452 431 m 1
 379 431 l 1
 369 485 346 509 303 509 c 0
 243 509 209 454 209 358 c 0
 209 265 242 211 300 211 c 0
 347 211 374 240 379 297 c 1
 454 297 l 1
 449 192 391 128 298 128 c 0
 197 128 133 218 133 360 c 0
 133 503 197 592 300 592 c 0
 389 592 447 531 452 431 c 1
302 743 m 0
 475 743 615 573 615 362 c 0
 615 147 476 -22 298 -22 c 0
 129 -22 -12 152 -12 361 c 0
 -12 572 129 743 302 743 c 0
302 671 m 0
 164 671 52 531 52 361 c 0
 52 192 165 50 299 50 c 0
 440 50 551 187 551 362 c 0
 551 532 439 671 302 671 c 0
EndSplineSet
EndChar

StartChar: registered
Encoding: 174 174 220
Width: 604
Flags: MW
HStem: -22 72<232 369.5 232 387> 313 81<236 320 236 311> 502 81<236 320 236 236> 671 72<233 370.5>
VStem: -12 64<276.5 446 276.5 466.5> 157 79<140 313 394 502> 373 78<436.5 468.5> 551 64<274.5 447>
LayerCount: 2
Fore
SplineSet
236 313 m 1
 236 140 l 1
 157 140 l 1
 157 583 l 1
 352 583 l 2
 415 583 451 539 451 462 c 0
 451 411 434 378 394 354 c 1
 436 330 438 323 440 195 c 0
 441 176 444 169 456 161 c 1
 456 140 l 1
 372 140 l 1
 362 163 360 175 360 219 c 2
 360 247 l 1
 361 255 361 260 361 264 c 0
 361 297 345 313 311 313 c 2
 236 313 l 1
236 394 m 1
 320 394 l 2
 360 394 373 407 373 448 c 0
 373 489 360 502 320 502 c 2
 236 502 l 1
 236 394 l 1
302 743 m 0
 475 743 615 573 615 362 c 0
 615 147 476 -22 298 -22 c 0
 129 -22 -12 152 -12 361 c 0
 -12 572 129 743 302 743 c 0
302 671 m 0
 164 671 52 531 52 361 c 0
 52 192 165 50 299 50 c 0
 440 50 551 187 551 362 c 0
 551 532 439 671 302 671 c 0
EndSplineSet
EndChar

StartChar: bullet
Encoding: 8226 8226 222
Width: 420
Flags: W
LayerCount: 2
Fore
SplineSet
212 537 m 0
 261 537 298 520 327 484 c 0
 352 454 367 417 367 383 c 0
 367 299 293 225 210 225 c 0
 124 225 55 296 55 384 c 0
 55 429 76 474 111 504 c 0
 137 526 171 537 212 537 c 0
EndSplineSet
EndChar

StartChar: lozenge
Encoding: 9674 9674 223
Width: 405
Flags: MW
HStem: 0 20 724 20<172 223 223 223>
LayerCount: 2
Fore
SplineSet
223 744 m 1
 381 372 l 1
 223 0 l 1
 172 0 l 1
 15 372 l 1
 172 744 l 1
 223 744 l 1
198 60 m 1
 330 372 l 1
 198 684 l 1
 67 372 l 1
 198 60 l 1
EndSplineSet
EndChar

StartChar: increment
Encoding: 8710 8710 224
Width: 502
Flags: MW
HStem: 0 125<121 382 121 544> 709 20<172 331 331 331>
LayerCount: 2
Fore
SplineSet
-41 0 m 1
 172 729 l 1
 331 729 l 1
 544 0 l 1
 -41 0 l 1
121 125 m 1
 382 125 l 1
 251 614 l 1
 121 125 l 1
EndSplineSet
EndChar

StartChar: notequal
Encoding: 8800 8800 225
Width: 450
Flags: MW
HStem: 52 119<41 101 41 153 41 204 259 438> 292 119<41 209 41 264 41 315 369 438>
LayerCount: 2
Fore
SplineSet
101 52 m 1
 41 52 l 1
 41 171 l 1
 153 171 l 1
 209 292 l 1
 41 292 l 1
 41 411 l 1
 264 411 l 1
 318 529 l 1
 397 472 l 1
 369 411 l 1
 438 411 l 1
 438 292 l 1
 315 292 l 1
 259 171 l 1
 438 171 l 1
 438 52 l 1
 204 52 l 1
 149 -69 l 1
 69 -13 l 1
 101 52 l 1
EndSplineSet
EndChar

StartChar: radical
Encoding: 8730 8730 226
Width: 450
Flags: W
LayerCount: 2
Fore
SplineSet
392 913 m 1
 421 908 l 1
 297 -36 l 1
 99 461 l 1
 22 415 l 1
 7 448 l 1
 128 521 l 1
 287 125 l 1
 392 913 l 1
EndSplineSet
EndChar

StartChar: lessequal
Encoding: 8804 8804 227
Width: 450
Flags: MW
HStem: -10 91<23 424 23 424>
LayerCount: 2
Fore
SplineSet
424 81 m 1
 424 -10 l 1
 23 -10 l 1
 23 81 l 1
 424 81 l 1
424 639 m 1
 424 530 l 1
 111 397 l 1
 424 266 l 1
 424 155 l 1
 23 337 l 1
 23 457 l 1
 424 639 l 1
EndSplineSet
EndChar

StartChar: greaterequal
Encoding: 8805 8805 228
Width: 450
Flags: MW
HStem: -10 91<23 424 23 424>
LayerCount: 2
Fore
SplineSet
424 81 m 1
 424 -10 l 1
 23 -10 l 1
 23 81 l 1
 424 81 l 1
23 155 m 1
 23 264 l 1
 336 397 l 1
 23 528 l 1
 23 639 l 1
 424 457 l 1
 424 336 l 1
 23 155 l 1
EndSplineSet
EndChar

StartChar: product
Encoding: 8719 8719 229
Width: 773
Flags: MW
HStem: -281 129<29 115 256 334 29 115 438 517 659 744> 715 129<29 115 29 744 256 517 256 256 659 744 659 659>
VStem: 115 141<-152 715 -152 715> 517 142<-152 715 -152 715>
LayerCount: 2
Fore
SplineSet
29 844 m 1
 744 844 l 1
 744 715 l 1
 659 715 l 1
 659 -152 l 1
 744 -152 l 1
 744 -281 l 1
 438 -281 l 1
 438 -152 l 1
 517 -152 l 1
 517 715 l 1
 256 715 l 1
 256 -152 l 1
 334 -152 l 1
 334 -281 l 1
 29 -281 l 1
 29 -152 l 1
 115 -152 l 1
 115 715 l 1
 29 715 l 1
 29 844 l 1
EndSplineSet
EndChar

StartChar: summation
Encoding: 8721 8721 230
Width: 492
Flags: MW
HStem: -132 95<127 362 127 440> 651 95<128 356 128 128>
LayerCount: 2
Fore
SplineSet
434 746 m 1
 434 513 l 1
 359 513 l 1
 356 651 l 1
 128 651 l 1
 281 325 l 1
 127 -37 l 1
 362 -37 l 1
 364 101 l 1
 440 101 l 1
 440 -132 l 1
 31 -132 l 1
 31 -47 l 1
 189 323 l 1
 31 663 l 1
 31 746 l 1
 434 746 l 1
EndSplineSet
EndChar

StartChar: partialdiff
Encoding: 8706 8706 231
Width: 405
Flags: MW
HStem: -16 55<147.5 183.5 147.5 206.5> 355 64<181.5 200 160 224> 680 70<163.5 194.5>
VStem: 18 88<128 212 122.5 217> 296 82<439 486>
LayerCount: 2
Fore
SplineSet
43 716 m 1
 55 722 l 1
 88 741 124 750 162 750 c 0
 287 750 378 604 378 403 c 0
 378 299 354 166 323 99 c 1
 287 24 237 -16 176 -16 c 0
 87 -16 18 72 18 184 c 0
 18 250 40 317 79 366 c 0
 106 401 140 419 180 419 c 0
 220 419 245 407 290 366 c 1
 294 404 296 427 296 451 c 0
 296 521 280 591 255 635 c 0
 238 664 211 680 178 680 c 0
 149 680 149 680 87 646 c 1
 43 716 l 1
282 303 m 1
 260 340 239 355 209 355 c 0
 154 355 106 263 106 161 c 0
 106 84 128 39 167 39 c 0
 200 39 230 72 249 130 c 0
 263 171 269 206 282 303 c 1
EndSplineSet
EndChar

StartChar: pi
Encoding: 960 960 232
Width: 711
Flags: MW
HStem: 0 20 419 121<29 112 29 682 258 258 258 454 600 600 600 682>
VStem: 112 146<0 419 0 419> 454 146<0 419 0 419>
LayerCount: 2
Fore
SplineSet
112 0 m 1
 112 419 l 1
 29 419 l 1
 29 540 l 1
 682 540 l 1
 682 419 l 1
 600 419 l 1
 600 0 l 1
 454 0 l 1
 454 419 l 1
 258 419 l 1
 258 0 l 1
 112 0 l 1
EndSplineSet
EndChar

StartChar: Omega
Encoding: 937 937 233
Width: 750
Flags: MW
HStem: 0 135<31 189 31 189 31 334 561 719> 633 136<343.5 406.5>
VStem: 29 156<349.5 417.5 341.5 513> 564 157<350 419.5>
LayerCount: 2
Fore
SplineSet
31 0 m 1
 31 135 l 1
 189 135 l 1
 77 204 29 287 29 412 c 0
 29 614 180 769 374 769 c 0
 571 769 721 614 721 412 c 0
 721 288 673 205 561 135 c 1
 719 135 l 1
 719 0 l 1
 416 0 l 1
 416 123 l 1
 514 175 564 265 564 390 c 0
 564 449 554 491 530 532 c 0
 493 597 438 633 375 633 c 0
 312 633 255 596 218 531 c 0
 196 491 185 446 185 389 c 0
 185 294 219 211 278 160 c 0
 294 146 306 138 334 123 c 1
 334 0 l 1
 31 0 l 1
EndSplineSet
EndChar

StartChar: less
Encoding: 60 60 234
Width: 500
Flags: W
LayerCount: 2
Fore
SplineSet
494 700 m 1
 494 542 l 1
 175 380 l 1
 493 218 l 1
 494 60 l 1
 6 314 l 1
 6 447 l 1
 494 700 l 1
EndSplineSet
EndChar

StartChar: greater
Encoding: 62 62 235
Width: 500
Flags: W
LayerCount: 2
Fore
SplineSet
6 60 m 1
 6 219 l 1
 324 380 l 1
 7 543 l 1
 6 700 l 1
 493 447 l 1
 493 313 l 1
 6 60 l 1
EndSplineSet
EndChar

StartChar: logicalnot
Encoding: 172 172 236
Width: 479
Flags: MW
HStem: 302 77<33 383 33 446>
VStem: 383 63<90 302 302 302>
LayerCount: 2
Fore
SplineSet
33 379 m 1
 446 379 l 1
 446 90 l 1
 383 90 l 1
 383 302 l 1
 33 302 l 1
 33 379 l 1
EndSplineSet
EndChar

StartChar: asciicircum
Encoding: 94 94 237
Width: 500
Flags: W
LayerCount: 2
Fore
SplineSet
131 390 m 1
 -17 390 l 1
 157 754 l 1
 343 754 l 1
 518 390 l 1
 369 390 l 1
 250 641 l 1
 131 390 l 1
EndSplineSet
EndChar

StartChar: bar
Encoding: 124 124 238
Width: 250
Flags: MW
HStem: 730 20<45 205 205 205>
VStem: 45 160<-187 750 -187 750>
LayerCount: 2
Fore
SplineSet
45 750 m 1
 205 750 l 1
 205 -187 l 1
 45 -187 l 1
 45 750 l 1
EndSplineSet
EndChar

StartChar: brokenbar
Encoding: 166 166 239
Width: 250
Flags: MW
HStem: 730 20<45 205 205 205>
VStem: 45 160<-187 173 -187 173 357 750>
LayerCount: 2
Fore
SplineSet
45 750 m 1
 205 750 l 1
 205 357 l 1
 45 357 l 1
 45 750 l 1
45 173 m 1
 205 173 l 1
 205 -187 l 1
 45 -187 l 1
 45 173 l 1
EndSplineSet
EndChar

StartChar: underscore
Encoding: 95 95 240
Width: 500
Flags: MW
HStem: -169 109<-31 532 -31 532>
LayerCount: 2
Fore
SplineSet
-31 -60 m 1
 532 -60 l 1
 532 -169 l 1
 -31 -169 l 1
 -31 -60 l 1
EndSplineSet
EndChar

StartChar: asciitilde
Encoding: 126 126 241
Width: 500
Flags: MW
HStem: 694 147<121 144>
LayerCount: 2
Fore
SplineSet
59 625 m 1
 -22 687 l 1
 24 796 72 841 144 841 c 0
 174 841 214 830 258 810 c 0
 302 790 338 779 364 778 c 0
 391 777 415 797 441 844 c 1
 523 782 l 1
 498 725 483 701 456 674 c 0
 430 649 390 632 355 632 c 0
 320 632 285 642 208 675 c 0
 180 687 153 694 135 694 c 0
 107 694 85 674 59 625 c 1
EndSplineSet
EndChar

StartChar: mu
Encoding: 956 956 242
Width: 504
Flags: MW
HStem: -11 115<233 274.5> 520 20<4 146 146 146 357 499 499 499>
VStem: 4 142<-192 57 230.5 256 256 540> 357 142<0 73 73 73 260 540 0 540>
LayerCount: 2
Fore
SplineSet
4 -192 m 1
 4 540 l 1
 146 540 l 1
 146 256 l 2
 146 205 150 183 163 158 c 0
 181 125 214 104 252 104 c 0
 319 104 357 161 357 260 c 2
 357 540 l 1
 499 540 l 1
 499 0 l 1
 357 0 l 1
 357 73 l 1
 333 14 300 -11 249 -11 c 0
 203 -11 173 9 146 57 c 1
 146 -192 l 1
 4 -192 l 1
EndSplineSet
EndChar
